%TF.GenerationSoftware,KiCad,Pcbnew,(5.1.10)-1*%
%TF.CreationDate,2022-01-27T10:19:25-05:00*%
%TF.ProjectId,CommaPowerProtect,436f6d6d-6150-46f7-9765-7250726f7465,rev?*%
%TF.SameCoordinates,Original*%
%TF.FileFunction,Legend,Top*%
%TF.FilePolarity,Positive*%
%FSLAX46Y46*%
G04 Gerber Fmt 4.6, Leading zero omitted, Abs format (unit mm)*
G04 Created by KiCad (PCBNEW (5.1.10)-1) date 2022-01-27 10:19:25*
%MOMM*%
%LPD*%
G01*
G04 APERTURE LIST*
%ADD10C,0.120000*%
%ADD11C,0.150000*%
G04 APERTURE END LIST*
D10*
%TO.C,J2*%
X97853500Y-71221600D02*
X97853500Y-51917600D01*
X97853500Y-51917600D02*
X94389342Y-51917600D01*
X82550000Y-51917600D02*
X82550000Y-57300961D01*
X82550000Y-71221600D02*
X89837662Y-71221600D01*
X82550000Y-65838239D02*
X82550000Y-71221600D01*
X94389342Y-71221600D02*
X97853500Y-71221600D01*
X89837662Y-51917600D02*
X82550000Y-51917600D01*
%TO.C,R3*%
X121450000Y-58255000D02*
X120750000Y-58255000D01*
X121450000Y-58955000D02*
X121450000Y-58255000D01*
X118050000Y-62755000D02*
X118650000Y-62755000D01*
X118050000Y-59855000D02*
X118050000Y-62755000D01*
X121250000Y-62755000D02*
X120650000Y-62755000D01*
X121250000Y-59855000D02*
X121250000Y-62755000D01*
X119850000Y-58755000D02*
X119450000Y-58755000D01*
%TO.C,R4*%
X113777500Y-55982776D02*
X113777500Y-56492224D01*
X114822500Y-55982776D02*
X114822500Y-56492224D01*
%TO.C,Q1*%
X112270000Y-67635000D02*
X113730000Y-67635000D01*
X112270000Y-70795000D02*
X114430000Y-70795000D01*
X112270000Y-70795000D02*
X112270000Y-69865000D01*
X112270000Y-67635000D02*
X112270000Y-68565000D01*
%TO.C,R1*%
X111872500Y-55982776D02*
X111872500Y-56492224D01*
X112917500Y-55982776D02*
X112917500Y-56492224D01*
%TO.C,R2*%
X117587500Y-56492224D02*
X117587500Y-55982776D01*
X118632500Y-56492224D02*
X118632500Y-55982776D01*
%TO.C,R5*%
X119492500Y-56492224D02*
X119492500Y-55982776D01*
X120537500Y-56492224D02*
X120537500Y-55982776D01*
%TO.C,R6*%
X115682500Y-55982776D02*
X115682500Y-56492224D01*
X116727500Y-55982776D02*
X116727500Y-56492224D01*
%TO.C,U1*%
X112180000Y-63175000D02*
X112180000Y-61475000D01*
X113880000Y-63025000D02*
X113880000Y-61475000D01*
%TO.C,J1*%
D11*
X101901666Y-65492380D02*
X101901666Y-66206666D01*
X101854047Y-66349523D01*
X101758809Y-66444761D01*
X101615952Y-66492380D01*
X101520714Y-66492380D01*
X102901666Y-66492380D02*
X102330238Y-66492380D01*
X102615952Y-66492380D02*
X102615952Y-65492380D01*
X102520714Y-65635238D01*
X102425476Y-65730476D01*
X102330238Y-65778095D01*
%TO.C,J2*%
X88352380Y-54282933D02*
X89066666Y-54282933D01*
X89209523Y-54330552D01*
X89304761Y-54425790D01*
X89352380Y-54568647D01*
X89352380Y-54663885D01*
X88447619Y-53854361D02*
X88400000Y-53806742D01*
X88352380Y-53711504D01*
X88352380Y-53473409D01*
X88400000Y-53378171D01*
X88447619Y-53330552D01*
X88542857Y-53282933D01*
X88638095Y-53282933D01*
X88780952Y-53330552D01*
X89352380Y-53901980D01*
X89352380Y-53282933D01*
X86812380Y-62593409D02*
X86336190Y-62926742D01*
X86812380Y-63164838D02*
X85812380Y-63164838D01*
X85812380Y-62783885D01*
X85860000Y-62688647D01*
X85907619Y-62641028D01*
X86002857Y-62593409D01*
X86145714Y-62593409D01*
X86240952Y-62641028D01*
X86288571Y-62688647D01*
X86336190Y-62783885D01*
X86336190Y-63164838D01*
X85812380Y-61879123D02*
X86526666Y-61879123D01*
X86669523Y-61926742D01*
X86764761Y-62021980D01*
X86812380Y-62164838D01*
X86812380Y-62260076D01*
X86145714Y-60974361D02*
X86812380Y-60974361D01*
X85764761Y-61212457D02*
X86479047Y-61450552D01*
X86479047Y-60831504D01*
X85812380Y-59974361D02*
X85812380Y-60450552D01*
X86288571Y-60498171D01*
X86240952Y-60450552D01*
X86193333Y-60355314D01*
X86193333Y-60117219D01*
X86240952Y-60021980D01*
X86288571Y-59974361D01*
X86383809Y-59926742D01*
X86621904Y-59926742D01*
X86717142Y-59974361D01*
X86764761Y-60021980D01*
X86812380Y-60117219D01*
X86812380Y-60355314D01*
X86764761Y-60450552D01*
X86717142Y-60498171D01*
%TO.C,R3*%
X119467333Y-61158380D02*
X119134000Y-60682190D01*
X118895904Y-61158380D02*
X118895904Y-60158380D01*
X119276857Y-60158380D01*
X119372095Y-60206000D01*
X119419714Y-60253619D01*
X119467333Y-60348857D01*
X119467333Y-60491714D01*
X119419714Y-60586952D01*
X119372095Y-60634571D01*
X119276857Y-60682190D01*
X118895904Y-60682190D01*
X119800666Y-60158380D02*
X120419714Y-60158380D01*
X120086380Y-60539333D01*
X120229238Y-60539333D01*
X120324476Y-60586952D01*
X120372095Y-60634571D01*
X120419714Y-60729809D01*
X120419714Y-60967904D01*
X120372095Y-61063142D01*
X120324476Y-61110761D01*
X120229238Y-61158380D01*
X119943523Y-61158380D01*
X119848285Y-61110761D01*
X119800666Y-61063142D01*
%TO.C,R4*%
X114133333Y-53919380D02*
X113800000Y-53443190D01*
X113561904Y-53919380D02*
X113561904Y-52919380D01*
X113942857Y-52919380D01*
X114038095Y-52967000D01*
X114085714Y-53014619D01*
X114133333Y-53109857D01*
X114133333Y-53252714D01*
X114085714Y-53347952D01*
X114038095Y-53395571D01*
X113942857Y-53443190D01*
X113561904Y-53443190D01*
X114990476Y-53252714D02*
X114990476Y-53919380D01*
X114752380Y-52871761D02*
X114514285Y-53586047D01*
X115133333Y-53586047D01*
%TO.C,Q1*%
X115474761Y-69762619D02*
X115379523Y-69715000D01*
X115284285Y-69619761D01*
X115141428Y-69476904D01*
X115046190Y-69429285D01*
X114950952Y-69429285D01*
X114998571Y-69667380D02*
X114903333Y-69619761D01*
X114808095Y-69524523D01*
X114760476Y-69334047D01*
X114760476Y-69000714D01*
X114808095Y-68810238D01*
X114903333Y-68715000D01*
X114998571Y-68667380D01*
X115189047Y-68667380D01*
X115284285Y-68715000D01*
X115379523Y-68810238D01*
X115427142Y-69000714D01*
X115427142Y-69334047D01*
X115379523Y-69524523D01*
X115284285Y-69619761D01*
X115189047Y-69667380D01*
X114998571Y-69667380D01*
X116379523Y-69667380D02*
X115808095Y-69667380D01*
X116093809Y-69667380D02*
X116093809Y-68667380D01*
X115998571Y-68810238D01*
X115903333Y-68905476D01*
X115808095Y-68953095D01*
%TO.C,R1*%
X112228333Y-54427380D02*
X111895000Y-53951190D01*
X111656904Y-54427380D02*
X111656904Y-53427380D01*
X112037857Y-53427380D01*
X112133095Y-53475000D01*
X112180714Y-53522619D01*
X112228333Y-53617857D01*
X112228333Y-53760714D01*
X112180714Y-53855952D01*
X112133095Y-53903571D01*
X112037857Y-53951190D01*
X111656904Y-53951190D01*
X113180714Y-54427380D02*
X112609285Y-54427380D01*
X112895000Y-54427380D02*
X112895000Y-53427380D01*
X112799761Y-53570238D01*
X112704523Y-53665476D01*
X112609285Y-53713095D01*
%TO.C,R2*%
X117943333Y-53919380D02*
X117610000Y-53443190D01*
X117371904Y-53919380D02*
X117371904Y-52919380D01*
X117752857Y-52919380D01*
X117848095Y-52967000D01*
X117895714Y-53014619D01*
X117943333Y-53109857D01*
X117943333Y-53252714D01*
X117895714Y-53347952D01*
X117848095Y-53395571D01*
X117752857Y-53443190D01*
X117371904Y-53443190D01*
X118324285Y-53014619D02*
X118371904Y-52967000D01*
X118467142Y-52919380D01*
X118705238Y-52919380D01*
X118800476Y-52967000D01*
X118848095Y-53014619D01*
X118895714Y-53109857D01*
X118895714Y-53205095D01*
X118848095Y-53347952D01*
X118276666Y-53919380D01*
X118895714Y-53919380D01*
%TO.C,R5*%
X119848333Y-54427380D02*
X119515000Y-53951190D01*
X119276904Y-54427380D02*
X119276904Y-53427380D01*
X119657857Y-53427380D01*
X119753095Y-53475000D01*
X119800714Y-53522619D01*
X119848333Y-53617857D01*
X119848333Y-53760714D01*
X119800714Y-53855952D01*
X119753095Y-53903571D01*
X119657857Y-53951190D01*
X119276904Y-53951190D01*
X120753095Y-53427380D02*
X120276904Y-53427380D01*
X120229285Y-53903571D01*
X120276904Y-53855952D01*
X120372142Y-53808333D01*
X120610238Y-53808333D01*
X120705476Y-53855952D01*
X120753095Y-53903571D01*
X120800714Y-53998809D01*
X120800714Y-54236904D01*
X120753095Y-54332142D01*
X120705476Y-54379761D01*
X120610238Y-54427380D01*
X120372142Y-54427380D01*
X120276904Y-54379761D01*
X120229285Y-54332142D01*
%TO.C,R6*%
X116038333Y-54427380D02*
X115705000Y-53951190D01*
X115466904Y-54427380D02*
X115466904Y-53427380D01*
X115847857Y-53427380D01*
X115943095Y-53475000D01*
X115990714Y-53522619D01*
X116038333Y-53617857D01*
X116038333Y-53760714D01*
X115990714Y-53855952D01*
X115943095Y-53903571D01*
X115847857Y-53951190D01*
X115466904Y-53951190D01*
X116895476Y-53427380D02*
X116705000Y-53427380D01*
X116609761Y-53475000D01*
X116562142Y-53522619D01*
X116466904Y-53665476D01*
X116419285Y-53855952D01*
X116419285Y-54236904D01*
X116466904Y-54332142D01*
X116514523Y-54379761D01*
X116609761Y-54427380D01*
X116800238Y-54427380D01*
X116895476Y-54379761D01*
X116943095Y-54332142D01*
X116990714Y-54236904D01*
X116990714Y-53998809D01*
X116943095Y-53903571D01*
X116895476Y-53855952D01*
X116800238Y-53808333D01*
X116609761Y-53808333D01*
X116514523Y-53855952D01*
X116466904Y-53903571D01*
X116419285Y-53998809D01*
%TO.C,U1*%
X110482380Y-62991904D02*
X111291904Y-62991904D01*
X111387142Y-62944285D01*
X111434761Y-62896666D01*
X111482380Y-62801428D01*
X111482380Y-62610952D01*
X111434761Y-62515714D01*
X111387142Y-62468095D01*
X111291904Y-62420476D01*
X110482380Y-62420476D01*
X111482380Y-61420476D02*
X111482380Y-61991904D01*
X111482380Y-61706190D02*
X110482380Y-61706190D01*
X110625238Y-61801428D01*
X110720476Y-61896666D01*
X110768095Y-61991904D01*
%TD*%
M02*
