%TF.GenerationSoftware,KiCad,Pcbnew,(5.1.10)-1*%
%TF.CreationDate,2022-01-27T10:19:25-05:00*%
%TF.ProjectId,CommaPowerProtect,436f6d6d-6150-46f7-9765-7250726f7465,rev?*%
%TF.SameCoordinates,Original*%
%TF.FileFunction,Copper,L1,Top*%
%TF.FilePolarity,Positive*%
%FSLAX46Y46*%
G04 Gerber Fmt 4.6, Leading zero omitted, Abs format (unit mm)*
G04 Created by KiCad (PCBNEW (5.1.10)-1) date 2022-01-27 10:19:25*
%MOMM*%
%LPD*%
G01*
G04 APERTURE LIST*
%TA.AperFunction,EtchedComponent*%
%ADD10C,0.100000*%
%TD*%
%TA.AperFunction,ComponentPad*%
%ADD11O,3.200000X2.200000*%
%TD*%
%TA.AperFunction,SMDPad,CuDef*%
%ADD12R,4.495800X0.812800*%
%TD*%
%TA.AperFunction,SMDPad,CuDef*%
%ADD13R,1.200000X1.200000*%
%TD*%
%TA.AperFunction,SMDPad,CuDef*%
%ADD14R,1.600000X1.500000*%
%TD*%
%TA.AperFunction,SMDPad,CuDef*%
%ADD15R,0.900000X0.800000*%
%TD*%
%TA.AperFunction,SMDPad,CuDef*%
%ADD16R,0.280000X0.850000*%
%TD*%
%TA.AperFunction,SMDPad,CuDef*%
%ADD17R,0.280000X0.750000*%
%TD*%
%TA.AperFunction,ViaPad*%
%ADD18C,0.800000*%
%TD*%
%TA.AperFunction,Conductor*%
%ADD19C,0.250000*%
%TD*%
%TA.AperFunction,Conductor*%
%ADD20C,1.000000*%
%TD*%
%TA.AperFunction,Conductor*%
%ADD21C,0.254000*%
%TD*%
%TA.AperFunction,Conductor*%
%ADD22C,0.100000*%
%TD*%
G04 APERTURE END LIST*
D10*
%TO.C,J2*%
G36*
X90170402Y-54141624D02*
G01*
X90981989Y-54088088D01*
X91224478Y-53889082D01*
X91501131Y-53741208D01*
X91801318Y-53650147D01*
X92113501Y-53619400D01*
X92425685Y-53650147D01*
X92725871Y-53741208D01*
X93002525Y-53889082D01*
X93245013Y-54088088D01*
X94056602Y-54141624D01*
X94056602Y-51677824D01*
X90170402Y-51677824D01*
X90170402Y-54141624D01*
G37*
X90170402Y-54141624D02*
X90981989Y-54088088D01*
X91224478Y-53889082D01*
X91501131Y-53741208D01*
X91801318Y-53650147D01*
X92113501Y-53619400D01*
X92425685Y-53650147D01*
X92725871Y-53741208D01*
X93002525Y-53889082D01*
X93245013Y-54088088D01*
X94056602Y-54141624D01*
X94056602Y-51677824D01*
X90170402Y-51677824D01*
X90170402Y-54141624D01*
G36*
X90170402Y-68997576D02*
G01*
X90981989Y-69051112D01*
X91224478Y-69250118D01*
X91501131Y-69397992D01*
X91801318Y-69489053D01*
X92113501Y-69519800D01*
X92425685Y-69489053D01*
X92725871Y-69397992D01*
X93002525Y-69250118D01*
X93245013Y-69051112D01*
X94056602Y-68997576D01*
X94056602Y-71461376D01*
X90170402Y-71461376D01*
X90170402Y-68997576D01*
G37*
X90170402Y-68997576D02*
X90981989Y-69051112D01*
X91224478Y-69250118D01*
X91501131Y-69397992D01*
X91801318Y-69489053D01*
X92113501Y-69519800D01*
X92425685Y-69489053D01*
X92725871Y-69397992D01*
X93002525Y-69250118D01*
X93245013Y-69051112D01*
X94056602Y-68997576D01*
X94056602Y-71461376D01*
X90170402Y-71461376D01*
X90170402Y-68997576D01*
%TD*%
D11*
%TO.P,J1,6*%
%TO.N,/CAN_H*%
X108585000Y-57023000D03*
%TO.P,J1,4*%
%TO.N,GND*%
X100965000Y-57023000D03*
%TO.P,J1,14*%
%TO.N,/CAN_L*%
X108585000Y-65913000D03*
%TO.P,J1,5*%
%TO.N,GND*%
X104775000Y-57023000D03*
%TO.P,J1,16*%
%TO.N,/VCC_IN*%
X116205000Y-65913000D03*
%TD*%
D12*
%TO.P,J2,1*%
%TO.N,GND*%
X82353500Y-57999600D03*
%TO.P,J2,2*%
%TO.N,/CAN_L*%
X82353500Y-59019600D03*
%TO.P,J2,3*%
%TO.N,Net-(J2-Pad3)*%
X82353500Y-60039601D03*
%TO.P,J2,4*%
%TO.N,/CAN_H*%
X82353500Y-61059601D03*
%TO.P,J2,5*%
%TO.N,GND*%
X82353500Y-62079599D03*
%TO.P,J2,6*%
%TO.N,Net-(J2-Pad6)*%
X82353500Y-63099599D03*
%TO.P,J2,7*%
%TO.N,/VCC_TO_RELAY*%
X82353500Y-64119600D03*
%TO.P,J2,8*%
X82353500Y-65139600D03*
%TD*%
D13*
%TO.P,R3,1*%
%TO.N,Net-(R3-Pad1)*%
X120650000Y-59055000D03*
%TO.P,R3,3*%
%TO.N,N/C*%
X118650000Y-59055000D03*
D14*
%TO.P,R3,2*%
%TO.N,GND*%
X119650000Y-62305000D03*
%TD*%
%TO.P,R4,1*%
%TO.N,Net-(R4-Pad1)*%
%TA.AperFunction,SMDPad,CuDef*%
G36*
G01*
X114062500Y-54837500D02*
X114537500Y-54837500D01*
G75*
G02*
X114775000Y-55075000I0J-237500D01*
G01*
X114775000Y-55575000D01*
G75*
G02*
X114537500Y-55812500I-237500J0D01*
G01*
X114062500Y-55812500D01*
G75*
G02*
X113825000Y-55575000I0J237500D01*
G01*
X113825000Y-55075000D01*
G75*
G02*
X114062500Y-54837500I237500J0D01*
G01*
G37*
%TD.AperFunction*%
%TO.P,R4,2*%
%TO.N,Net-(R1-Pad2)*%
%TA.AperFunction,SMDPad,CuDef*%
G36*
G01*
X114062500Y-56662500D02*
X114537500Y-56662500D01*
G75*
G02*
X114775000Y-56900000I0J-237500D01*
G01*
X114775000Y-57400000D01*
G75*
G02*
X114537500Y-57637500I-237500J0D01*
G01*
X114062500Y-57637500D01*
G75*
G02*
X113825000Y-57400000I0J237500D01*
G01*
X113825000Y-56900000D01*
G75*
G02*
X114062500Y-56662500I237500J0D01*
G01*
G37*
%TD.AperFunction*%
%TD*%
D15*
%TO.P,Q1,1*%
%TO.N,Net-(Q1-Pad1)*%
X114030000Y-70165000D03*
%TO.P,Q1,2*%
%TO.N,/VCC_IN*%
X114030000Y-68265000D03*
%TO.P,Q1,3*%
%TO.N,/VCC_TO_RELAY*%
X112030000Y-69215000D03*
%TD*%
%TO.P,R1,1*%
%TO.N,/VCC_IN*%
%TA.AperFunction,SMDPad,CuDef*%
G36*
G01*
X112157500Y-54837500D02*
X112632500Y-54837500D01*
G75*
G02*
X112870000Y-55075000I0J-237500D01*
G01*
X112870000Y-55575000D01*
G75*
G02*
X112632500Y-55812500I-237500J0D01*
G01*
X112157500Y-55812500D01*
G75*
G02*
X111920000Y-55575000I0J237500D01*
G01*
X111920000Y-55075000D01*
G75*
G02*
X112157500Y-54837500I237500J0D01*
G01*
G37*
%TD.AperFunction*%
%TO.P,R1,2*%
%TO.N,Net-(R1-Pad2)*%
%TA.AperFunction,SMDPad,CuDef*%
G36*
G01*
X112157500Y-56662500D02*
X112632500Y-56662500D01*
G75*
G02*
X112870000Y-56900000I0J-237500D01*
G01*
X112870000Y-57400000D01*
G75*
G02*
X112632500Y-57637500I-237500J0D01*
G01*
X112157500Y-57637500D01*
G75*
G02*
X111920000Y-57400000I0J237500D01*
G01*
X111920000Y-56900000D01*
G75*
G02*
X112157500Y-56662500I237500J0D01*
G01*
G37*
%TD.AperFunction*%
%TD*%
%TO.P,R2,2*%
%TO.N,Net-(R2-Pad2)*%
%TA.AperFunction,SMDPad,CuDef*%
G36*
G01*
X118347500Y-55812500D02*
X117872500Y-55812500D01*
G75*
G02*
X117635000Y-55575000I0J237500D01*
G01*
X117635000Y-55075000D01*
G75*
G02*
X117872500Y-54837500I237500J0D01*
G01*
X118347500Y-54837500D01*
G75*
G02*
X118585000Y-55075000I0J-237500D01*
G01*
X118585000Y-55575000D01*
G75*
G02*
X118347500Y-55812500I-237500J0D01*
G01*
G37*
%TD.AperFunction*%
%TO.P,R2,1*%
%TO.N,Net-(R2-Pad1)*%
%TA.AperFunction,SMDPad,CuDef*%
G36*
G01*
X118347500Y-57637500D02*
X117872500Y-57637500D01*
G75*
G02*
X117635000Y-57400000I0J237500D01*
G01*
X117635000Y-56900000D01*
G75*
G02*
X117872500Y-56662500I237500J0D01*
G01*
X118347500Y-56662500D01*
G75*
G02*
X118585000Y-56900000I0J-237500D01*
G01*
X118585000Y-57400000D01*
G75*
G02*
X118347500Y-57637500I-237500J0D01*
G01*
G37*
%TD.AperFunction*%
%TD*%
%TO.P,R5,2*%
%TO.N,Net-(R2-Pad2)*%
%TA.AperFunction,SMDPad,CuDef*%
G36*
G01*
X120252500Y-55812500D02*
X119777500Y-55812500D01*
G75*
G02*
X119540000Y-55575000I0J237500D01*
G01*
X119540000Y-55075000D01*
G75*
G02*
X119777500Y-54837500I237500J0D01*
G01*
X120252500Y-54837500D01*
G75*
G02*
X120490000Y-55075000I0J-237500D01*
G01*
X120490000Y-55575000D01*
G75*
G02*
X120252500Y-55812500I-237500J0D01*
G01*
G37*
%TD.AperFunction*%
%TO.P,R5,1*%
%TO.N,Net-(R3-Pad1)*%
%TA.AperFunction,SMDPad,CuDef*%
G36*
G01*
X120252500Y-57637500D02*
X119777500Y-57637500D01*
G75*
G02*
X119540000Y-57400000I0J237500D01*
G01*
X119540000Y-56900000D01*
G75*
G02*
X119777500Y-56662500I237500J0D01*
G01*
X120252500Y-56662500D01*
G75*
G02*
X120490000Y-56900000I0J-237500D01*
G01*
X120490000Y-57400000D01*
G75*
G02*
X120252500Y-57637500I-237500J0D01*
G01*
G37*
%TD.AperFunction*%
%TD*%
%TO.P,R6,1*%
%TO.N,Net-(R4-Pad1)*%
%TA.AperFunction,SMDPad,CuDef*%
G36*
G01*
X115967500Y-54837500D02*
X116442500Y-54837500D01*
G75*
G02*
X116680000Y-55075000I0J-237500D01*
G01*
X116680000Y-55575000D01*
G75*
G02*
X116442500Y-55812500I-237500J0D01*
G01*
X115967500Y-55812500D01*
G75*
G02*
X115730000Y-55575000I0J237500D01*
G01*
X115730000Y-55075000D01*
G75*
G02*
X115967500Y-54837500I237500J0D01*
G01*
G37*
%TD.AperFunction*%
%TO.P,R6,2*%
%TO.N,Net-(R2-Pad1)*%
%TA.AperFunction,SMDPad,CuDef*%
G36*
G01*
X115967500Y-56662500D02*
X116442500Y-56662500D01*
G75*
G02*
X116680000Y-56900000I0J-237500D01*
G01*
X116680000Y-57400000D01*
G75*
G02*
X116442500Y-57637500I-237500J0D01*
G01*
X115967500Y-57637500D01*
G75*
G02*
X115730000Y-57400000I0J237500D01*
G01*
X115730000Y-56900000D01*
G75*
G02*
X115967500Y-56662500I237500J0D01*
G01*
G37*
%TD.AperFunction*%
%TD*%
D16*
%TO.P,U1,1*%
%TO.N,GND*%
X112530000Y-62755000D03*
D17*
%TO.P,U1,2*%
%TO.N,/VCC_IN*%
X113030000Y-62805000D03*
%TO.P,U1,3*%
%TO.N,GND*%
X113530000Y-62805000D03*
%TO.P,U1,4*%
%TO.N,Net-(R2-Pad1)*%
X113530000Y-61655000D03*
%TO.P,U1,5*%
%TO.N,GND*%
X113030000Y-61655000D03*
%TO.P,U1,6*%
%TO.N,Net-(Q1-Pad1)*%
X112530000Y-61655000D03*
%TD*%
D18*
%TO.N,/CAN_L*%
X95885000Y-59055000D03*
%TO.N,Net-(Q1-Pad1)*%
X113030000Y-70739000D03*
X111360001Y-66910001D03*
%TO.N,/VCC_IN*%
X112649000Y-54229000D03*
%TD*%
D19*
%TO.N,/CAN_H*%
X104548399Y-61059601D02*
X82353500Y-61059601D01*
X108585000Y-57023000D02*
X104548399Y-61059601D01*
%TO.N,/CAN_L*%
X82388900Y-59055000D02*
X82353500Y-59019600D01*
X95885000Y-59055000D02*
X82388900Y-59055000D01*
%TO.N,Net-(Q1-Pad1)*%
X111360001Y-62824999D02*
X112530000Y-61655000D01*
X111360001Y-66910001D02*
X111360001Y-66910001D01*
X111360001Y-66910001D02*
X111360001Y-62824999D01*
X113030000Y-70739000D02*
X113456000Y-70739000D01*
X113456000Y-70739000D02*
X114030000Y-70165000D01*
%TO.N,Net-(R1-Pad2)*%
X114300000Y-57150000D02*
X112395000Y-57150000D01*
%TO.N,GND*%
X88900000Y-52070000D02*
X95250000Y-52070000D01*
X88900000Y-71120000D02*
X95250000Y-71120000D01*
X112530000Y-62755000D02*
X112530000Y-63111000D01*
X112530000Y-62755000D02*
X112530000Y-63746000D01*
X113030000Y-61655000D02*
X113030000Y-60579000D01*
%TO.N,/VCC_IN*%
X114763000Y-65913000D02*
X116205000Y-65913000D01*
X113030000Y-64180000D02*
X114763000Y-65913000D01*
X113030000Y-63630000D02*
X113030000Y-64180000D01*
X113030000Y-64135000D02*
X113030000Y-63630000D01*
D20*
X116205000Y-66090000D02*
X114030000Y-68265000D01*
X116205000Y-65913000D02*
X116205000Y-66090000D01*
D19*
X113030000Y-63630000D02*
X113030000Y-62805000D01*
X112395000Y-54483000D02*
X112649000Y-54229000D01*
X112395000Y-55325000D02*
X112395000Y-54483000D01*
D20*
%TO.N,/VCC_TO_RELAY*%
X112030000Y-69215000D02*
X99060000Y-69215000D01*
X99060000Y-69215000D02*
X94615000Y-64770000D01*
X94615000Y-64770000D02*
X82550000Y-64770000D01*
D19*
X82353500Y-64966500D02*
X82550000Y-64770000D01*
X82353500Y-65139600D02*
X82353500Y-64966500D01*
X82353500Y-65139600D02*
X82353500Y-64119600D01*
%TO.N,Net-(R2-Pad2)*%
X118110000Y-55325000D02*
X120015000Y-55325000D01*
%TO.N,Net-(R2-Pad1)*%
X116205000Y-57150000D02*
X118110000Y-57150000D01*
X116205000Y-58980000D02*
X113530000Y-61655000D01*
X116205000Y-57150000D02*
X116205000Y-58980000D01*
%TO.N,Net-(R3-Pad1)*%
X120015000Y-57150000D02*
X120650000Y-57785000D01*
X120650000Y-57785000D02*
X120650000Y-59055000D01*
%TO.N,Net-(R4-Pad1)*%
X116205000Y-55325000D02*
X114300000Y-55325000D01*
%TD*%
D21*
%TO.N,GND*%
X119316480Y-52034414D02*
X119988355Y-52237265D01*
X120608035Y-52566755D01*
X121151914Y-53010331D01*
X121599278Y-53551098D01*
X121933087Y-54168466D01*
X122140624Y-54838909D01*
X122215977Y-55555838D01*
X122216002Y-55563108D01*
X122216001Y-67542343D01*
X122145587Y-68260479D01*
X121942736Y-68932353D01*
X121613245Y-69552037D01*
X121169668Y-70095915D01*
X120628903Y-70543276D01*
X120011534Y-70877086D01*
X119341092Y-71084622D01*
X118624163Y-71159975D01*
X118617180Y-71159999D01*
X113733285Y-71159999D01*
X113736245Y-71158417D01*
X113812684Y-71095684D01*
X113828401Y-71076533D01*
X113961111Y-70943824D01*
X114480000Y-70943824D01*
X114553905Y-70936545D01*
X114624970Y-70914988D01*
X114690463Y-70879981D01*
X114747869Y-70832869D01*
X114794981Y-70775463D01*
X114829988Y-70709970D01*
X114851545Y-70638905D01*
X114858824Y-70565000D01*
X114858824Y-69765000D01*
X114851545Y-69691095D01*
X114829988Y-69620030D01*
X114794981Y-69554537D01*
X114747869Y-69497131D01*
X114690463Y-69450019D01*
X114624970Y-69415012D01*
X114553905Y-69393455D01*
X114480000Y-69386176D01*
X113580000Y-69386176D01*
X113506095Y-69393455D01*
X113435030Y-69415012D01*
X113369537Y-69450019D01*
X113312131Y-69497131D01*
X113265019Y-69554537D01*
X113230012Y-69620030D01*
X113208455Y-69691095D01*
X113201176Y-69765000D01*
X113201176Y-69980826D01*
X113106528Y-69962000D01*
X112953472Y-69962000D01*
X112803357Y-69991859D01*
X112661952Y-70050431D01*
X112534691Y-70135464D01*
X112426464Y-70243691D01*
X112341431Y-70370952D01*
X112282859Y-70512357D01*
X112253000Y-70662472D01*
X112253000Y-70815528D01*
X112282859Y-70965643D01*
X112341431Y-71107048D01*
X112376812Y-71159999D01*
X94483602Y-71160000D01*
X94483602Y-68997576D01*
X94482373Y-68985038D01*
X94482862Y-68972445D01*
X94478314Y-68943647D01*
X94475470Y-68914638D01*
X94471829Y-68902578D01*
X94469863Y-68890130D01*
X94459807Y-68862759D01*
X94451383Y-68834859D01*
X94445470Y-68823738D01*
X94441123Y-68811907D01*
X94425941Y-68787009D01*
X94412259Y-68761278D01*
X94404297Y-68751515D01*
X94397736Y-68740756D01*
X94378015Y-68719290D01*
X94359589Y-68696697D01*
X94349879Y-68688665D01*
X94341356Y-68679387D01*
X94317837Y-68662157D01*
X94295377Y-68643577D01*
X94284296Y-68637585D01*
X94274130Y-68630138D01*
X94247715Y-68617806D01*
X94222071Y-68603940D01*
X94210033Y-68600214D01*
X94198617Y-68594884D01*
X94170313Y-68587918D01*
X94142462Y-68579297D01*
X94129930Y-68577980D01*
X94117696Y-68574969D01*
X94088579Y-68573634D01*
X94059583Y-68570586D01*
X94047033Y-68571728D01*
X94034448Y-68571151D01*
X94028496Y-68571502D01*
X93982318Y-68574548D01*
X94014718Y-68496328D01*
X94090701Y-68114337D01*
X94090701Y-67724863D01*
X94014718Y-67342872D01*
X93865673Y-66983045D01*
X93649293Y-66659208D01*
X93373893Y-66383808D01*
X93050056Y-66167428D01*
X92690229Y-66018383D01*
X92308238Y-65942400D01*
X91918764Y-65942400D01*
X91536773Y-66018383D01*
X91176946Y-66167428D01*
X90853109Y-66383808D01*
X90577709Y-66659208D01*
X90361329Y-66983045D01*
X90212284Y-67342872D01*
X90136301Y-67724863D01*
X90136301Y-68114337D01*
X90212284Y-68496328D01*
X90244684Y-68574548D01*
X90198508Y-68571502D01*
X90185917Y-68571903D01*
X90173383Y-68570586D01*
X90144349Y-68573228D01*
X90115214Y-68574157D01*
X90102939Y-68576997D01*
X90090390Y-68578139D01*
X90062417Y-68586372D01*
X90034023Y-68592941D01*
X90022538Y-68598109D01*
X90010445Y-68601668D01*
X89984603Y-68615178D01*
X89958026Y-68627137D01*
X89947759Y-68634441D01*
X89936593Y-68640278D01*
X89913876Y-68658543D01*
X89890119Y-68675442D01*
X89881466Y-68684601D01*
X89871646Y-68692496D01*
X89852908Y-68714827D01*
X89832887Y-68736018D01*
X89826176Y-68746685D01*
X89818079Y-68756335D01*
X89804039Y-68781874D01*
X89788511Y-68806556D01*
X89784000Y-68818324D01*
X89777931Y-68829363D01*
X89769117Y-68857148D01*
X89758682Y-68884370D01*
X89756543Y-68896788D01*
X89752733Y-68908798D01*
X89749485Y-68937758D01*
X89744534Y-68966496D01*
X89744848Y-68979099D01*
X89743444Y-68991614D01*
X89743402Y-68997576D01*
X89743402Y-71160001D01*
X83787668Y-71160001D01*
X83069521Y-71089586D01*
X82397647Y-70886735D01*
X81777963Y-70557244D01*
X81234085Y-70113667D01*
X80786724Y-69572902D01*
X80452914Y-68955533D01*
X80245378Y-68285091D01*
X80170025Y-67568162D01*
X80170001Y-67561180D01*
X80170001Y-65924824D01*
X84601400Y-65924824D01*
X84675305Y-65917545D01*
X84746370Y-65895988D01*
X84811863Y-65860981D01*
X84869269Y-65813869D01*
X84916381Y-65756463D01*
X84951388Y-65690970D01*
X84964726Y-65647000D01*
X94251735Y-65647000D01*
X98409403Y-69804668D01*
X98436867Y-69838133D01*
X98570408Y-69947727D01*
X98722763Y-70029162D01*
X98888078Y-70079310D01*
X99016921Y-70092000D01*
X99016930Y-70092000D01*
X99059999Y-70096242D01*
X99103069Y-70092000D01*
X112073079Y-70092000D01*
X112201922Y-70079310D01*
X112367237Y-70029162D01*
X112433350Y-69993824D01*
X112480000Y-69993824D01*
X112553905Y-69986545D01*
X112624970Y-69964988D01*
X112690463Y-69929981D01*
X112747869Y-69882869D01*
X112794981Y-69825463D01*
X112829988Y-69759970D01*
X112851545Y-69688905D01*
X112858824Y-69615000D01*
X112858824Y-69503903D01*
X112894310Y-69386922D01*
X112911243Y-69215000D01*
X112894310Y-69043078D01*
X112858824Y-68926097D01*
X112858824Y-68815000D01*
X112851545Y-68741095D01*
X112829988Y-68670030D01*
X112794981Y-68604537D01*
X112747869Y-68547131D01*
X112690463Y-68500019D01*
X112624970Y-68465012D01*
X112553905Y-68443455D01*
X112480000Y-68436176D01*
X112433350Y-68436176D01*
X112367237Y-68400838D01*
X112201922Y-68350690D01*
X112073079Y-68338000D01*
X99423265Y-68338000D01*
X96998265Y-65913000D01*
X106600854Y-65913000D01*
X106629371Y-66202543D01*
X106713828Y-66480958D01*
X106850978Y-66737547D01*
X107035550Y-66962450D01*
X107260453Y-67147022D01*
X107517042Y-67284172D01*
X107795457Y-67368629D01*
X108012444Y-67390000D01*
X109157556Y-67390000D01*
X109374543Y-67368629D01*
X109652958Y-67284172D01*
X109909547Y-67147022D01*
X110134450Y-66962450D01*
X110240298Y-66833473D01*
X110583001Y-66833473D01*
X110583001Y-66986529D01*
X110612860Y-67136644D01*
X110671432Y-67278049D01*
X110756465Y-67405310D01*
X110864692Y-67513537D01*
X110991953Y-67598570D01*
X111133358Y-67657142D01*
X111283473Y-67687001D01*
X111436529Y-67687001D01*
X111586644Y-67657142D01*
X111728049Y-67598570D01*
X111855310Y-67513537D01*
X111963537Y-67405310D01*
X112048570Y-67278049D01*
X112107142Y-67136644D01*
X112137001Y-66986529D01*
X112137001Y-66833473D01*
X112107142Y-66683358D01*
X112048570Y-66541953D01*
X111963537Y-66414692D01*
X111862001Y-66313156D01*
X111862001Y-63535796D01*
X111929274Y-63621438D01*
X112024247Y-63702839D01*
X112133275Y-63764147D01*
X112252170Y-63803008D01*
X112358250Y-63815000D01*
X112402998Y-63770252D01*
X112402998Y-63815000D01*
X112528000Y-63815000D01*
X112528000Y-64155357D01*
X112525573Y-64180000D01*
X112535265Y-64278409D01*
X112563970Y-64373036D01*
X112610584Y-64460245D01*
X112657601Y-64517535D01*
X112657604Y-64517538D01*
X112673317Y-64536684D01*
X112692463Y-64552397D01*
X114239185Y-66099120D01*
X114249371Y-66202543D01*
X114333828Y-66480958D01*
X114417409Y-66637326D01*
X113567309Y-67487426D01*
X113506095Y-67493455D01*
X113435030Y-67515012D01*
X113369537Y-67550019D01*
X113312131Y-67597131D01*
X113265019Y-67654537D01*
X113230012Y-67720030D01*
X113208455Y-67791095D01*
X113201176Y-67865000D01*
X113201176Y-67976098D01*
X113165690Y-68093078D01*
X113148757Y-68265000D01*
X113165690Y-68436922D01*
X113201176Y-68553902D01*
X113201176Y-68665000D01*
X113208455Y-68738905D01*
X113230012Y-68809970D01*
X113265019Y-68875463D01*
X113312131Y-68932869D01*
X113369537Y-68979981D01*
X113435030Y-69014988D01*
X113506095Y-69036545D01*
X113580000Y-69043824D01*
X113626651Y-69043824D01*
X113692764Y-69079162D01*
X113858078Y-69129310D01*
X114030000Y-69146243D01*
X114201922Y-69129310D01*
X114367236Y-69079162D01*
X114433349Y-69043824D01*
X114480000Y-69043824D01*
X114553905Y-69036545D01*
X114624970Y-69014988D01*
X114690463Y-68979981D01*
X114747869Y-68932869D01*
X114794981Y-68875463D01*
X114829988Y-68809970D01*
X114851545Y-68738905D01*
X114857574Y-68677691D01*
X116145265Y-67390000D01*
X116777556Y-67390000D01*
X116994543Y-67368629D01*
X117272958Y-67284172D01*
X117529547Y-67147022D01*
X117754450Y-66962450D01*
X117939022Y-66737547D01*
X118076172Y-66480958D01*
X118160629Y-66202543D01*
X118189146Y-65913000D01*
X118160629Y-65623457D01*
X118076172Y-65345042D01*
X117939022Y-65088453D01*
X117754450Y-64863550D01*
X117529547Y-64678978D01*
X117272958Y-64541828D01*
X116994543Y-64457371D01*
X116777556Y-64436000D01*
X115632444Y-64436000D01*
X115415457Y-64457371D01*
X115137042Y-64541828D01*
X114880453Y-64678978D01*
X114655550Y-64863550D01*
X114550946Y-64991011D01*
X113532000Y-63972066D01*
X113532000Y-63815000D01*
X113657002Y-63815000D01*
X113657002Y-63770252D01*
X113701750Y-63815000D01*
X113808791Y-63802794D01*
X113927626Y-63763751D01*
X114036560Y-63702274D01*
X114131407Y-63620726D01*
X114208522Y-63522242D01*
X114264943Y-63410605D01*
X114298500Y-63290107D01*
X114307904Y-63165377D01*
X114305000Y-63090750D01*
X114269250Y-63055000D01*
X118211928Y-63055000D01*
X118224188Y-63179482D01*
X118260498Y-63299180D01*
X118319463Y-63409494D01*
X118398815Y-63506185D01*
X118495506Y-63585537D01*
X118605820Y-63644502D01*
X118725518Y-63680812D01*
X118850000Y-63693072D01*
X119364250Y-63690000D01*
X119523000Y-63531250D01*
X119523000Y-62432000D01*
X119777000Y-62432000D01*
X119777000Y-63531250D01*
X119935750Y-63690000D01*
X120450000Y-63693072D01*
X120574482Y-63680812D01*
X120694180Y-63644502D01*
X120804494Y-63585537D01*
X120901185Y-63506185D01*
X120980537Y-63409494D01*
X121039502Y-63299180D01*
X121075812Y-63179482D01*
X121088072Y-63055000D01*
X121085000Y-62590750D01*
X120926250Y-62432000D01*
X119777000Y-62432000D01*
X119523000Y-62432000D01*
X118373750Y-62432000D01*
X118215000Y-62590750D01*
X118211928Y-63055000D01*
X114269250Y-63055000D01*
X114146250Y-62932000D01*
X113548824Y-62932000D01*
X113548824Y-62678000D01*
X114146250Y-62678000D01*
X114305000Y-62519250D01*
X114307904Y-62444623D01*
X114298500Y-62319893D01*
X114264943Y-62199395D01*
X114208522Y-62087758D01*
X114131407Y-61989274D01*
X114048824Y-61918270D01*
X114048824Y-61846110D01*
X114339934Y-61555000D01*
X118211928Y-61555000D01*
X118215000Y-62019250D01*
X118373750Y-62178000D01*
X119523000Y-62178000D01*
X119523000Y-61078750D01*
X119777000Y-61078750D01*
X119777000Y-62178000D01*
X120926250Y-62178000D01*
X121085000Y-62019250D01*
X121088072Y-61555000D01*
X121075812Y-61430518D01*
X121039502Y-61310820D01*
X120980537Y-61200506D01*
X120901185Y-61103815D01*
X120804494Y-61024463D01*
X120694180Y-60965498D01*
X120574482Y-60929188D01*
X120450000Y-60916928D01*
X119935750Y-60920000D01*
X119777000Y-61078750D01*
X119523000Y-61078750D01*
X119364250Y-60920000D01*
X118850000Y-60916928D01*
X118725518Y-60929188D01*
X118605820Y-60965498D01*
X118495506Y-61024463D01*
X118398815Y-61103815D01*
X118319463Y-61200506D01*
X118260498Y-61310820D01*
X118224188Y-61430518D01*
X118211928Y-61555000D01*
X114339934Y-61555000D01*
X116542538Y-59352397D01*
X116561684Y-59336684D01*
X116624417Y-59260245D01*
X116671031Y-59173036D01*
X116699736Y-59078409D01*
X116707000Y-59004653D01*
X116707000Y-59004644D01*
X116709427Y-58980001D01*
X116707000Y-58955358D01*
X116707000Y-58455000D01*
X117671176Y-58455000D01*
X117671176Y-59655000D01*
X117678455Y-59728905D01*
X117700012Y-59799970D01*
X117735019Y-59865463D01*
X117782131Y-59922869D01*
X117839537Y-59969981D01*
X117905030Y-60004988D01*
X117976095Y-60026545D01*
X118050000Y-60033824D01*
X119250000Y-60033824D01*
X119323905Y-60026545D01*
X119394970Y-60004988D01*
X119460463Y-59969981D01*
X119517869Y-59922869D01*
X119564981Y-59865463D01*
X119599988Y-59799970D01*
X119621545Y-59728905D01*
X119628824Y-59655000D01*
X119628824Y-58455000D01*
X119621545Y-58381095D01*
X119599988Y-58310030D01*
X119564981Y-58244537D01*
X119517869Y-58187131D01*
X119460463Y-58140019D01*
X119394970Y-58105012D01*
X119323905Y-58083455D01*
X119250000Y-58076176D01*
X118050000Y-58076176D01*
X117976095Y-58083455D01*
X117905030Y-58105012D01*
X117839537Y-58140019D01*
X117782131Y-58187131D01*
X117735019Y-58244537D01*
X117700012Y-58310030D01*
X117678455Y-58381095D01*
X117671176Y-58455000D01*
X116707000Y-58455000D01*
X116707000Y-57954099D01*
X116784911Y-57912455D01*
X116878307Y-57835807D01*
X116954955Y-57742411D01*
X117003280Y-57652000D01*
X117311720Y-57652000D01*
X117360045Y-57742411D01*
X117436693Y-57835807D01*
X117530089Y-57912455D01*
X117636643Y-57969409D01*
X117752261Y-58004482D01*
X117872500Y-58016324D01*
X118347500Y-58016324D01*
X118467739Y-58004482D01*
X118583357Y-57969409D01*
X118689911Y-57912455D01*
X118783307Y-57835807D01*
X118859955Y-57742411D01*
X118916909Y-57635857D01*
X118951982Y-57520239D01*
X118963824Y-57400000D01*
X118963824Y-56900000D01*
X119161176Y-56900000D01*
X119161176Y-57400000D01*
X119173018Y-57520239D01*
X119208091Y-57635857D01*
X119265045Y-57742411D01*
X119341693Y-57835807D01*
X119435089Y-57912455D01*
X119541643Y-57969409D01*
X119657261Y-58004482D01*
X119777500Y-58016324D01*
X120148000Y-58016324D01*
X120148000Y-58076176D01*
X120050000Y-58076176D01*
X119976095Y-58083455D01*
X119905030Y-58105012D01*
X119839537Y-58140019D01*
X119782131Y-58187131D01*
X119735019Y-58244537D01*
X119700012Y-58310030D01*
X119678455Y-58381095D01*
X119671176Y-58455000D01*
X119671176Y-59655000D01*
X119678455Y-59728905D01*
X119700012Y-59799970D01*
X119735019Y-59865463D01*
X119782131Y-59922869D01*
X119839537Y-59969981D01*
X119905030Y-60004988D01*
X119976095Y-60026545D01*
X120050000Y-60033824D01*
X121250000Y-60033824D01*
X121323905Y-60026545D01*
X121394970Y-60004988D01*
X121460463Y-59969981D01*
X121517869Y-59922869D01*
X121564981Y-59865463D01*
X121599988Y-59799970D01*
X121621545Y-59728905D01*
X121628824Y-59655000D01*
X121628824Y-58455000D01*
X121621545Y-58381095D01*
X121599988Y-58310030D01*
X121564981Y-58244537D01*
X121517869Y-58187131D01*
X121460463Y-58140019D01*
X121394970Y-58105012D01*
X121323905Y-58083455D01*
X121250000Y-58076176D01*
X121152000Y-58076176D01*
X121152000Y-57809645D01*
X121154427Y-57785000D01*
X121152000Y-57760354D01*
X121152000Y-57760347D01*
X121144736Y-57686591D01*
X121134243Y-57652000D01*
X121116031Y-57591963D01*
X121069417Y-57504754D01*
X121022400Y-57447464D01*
X121022392Y-57447456D01*
X121006684Y-57428316D01*
X120987543Y-57412607D01*
X120868824Y-57293888D01*
X120868824Y-56900000D01*
X120856982Y-56779761D01*
X120821909Y-56664143D01*
X120764955Y-56557589D01*
X120688307Y-56464193D01*
X120594911Y-56387545D01*
X120488357Y-56330591D01*
X120372739Y-56295518D01*
X120252500Y-56283676D01*
X119777500Y-56283676D01*
X119657261Y-56295518D01*
X119541643Y-56330591D01*
X119435089Y-56387545D01*
X119341693Y-56464193D01*
X119265045Y-56557589D01*
X119208091Y-56664143D01*
X119173018Y-56779761D01*
X119161176Y-56900000D01*
X118963824Y-56900000D01*
X118951982Y-56779761D01*
X118916909Y-56664143D01*
X118859955Y-56557589D01*
X118783307Y-56464193D01*
X118689911Y-56387545D01*
X118583357Y-56330591D01*
X118467739Y-56295518D01*
X118347500Y-56283676D01*
X117872500Y-56283676D01*
X117752261Y-56295518D01*
X117636643Y-56330591D01*
X117530089Y-56387545D01*
X117436693Y-56464193D01*
X117360045Y-56557589D01*
X117311720Y-56648000D01*
X117003280Y-56648000D01*
X116954955Y-56557589D01*
X116878307Y-56464193D01*
X116784911Y-56387545D01*
X116678357Y-56330591D01*
X116562739Y-56295518D01*
X116442500Y-56283676D01*
X115967500Y-56283676D01*
X115847261Y-56295518D01*
X115731643Y-56330591D01*
X115625089Y-56387545D01*
X115531693Y-56464193D01*
X115455045Y-56557589D01*
X115398091Y-56664143D01*
X115363018Y-56779761D01*
X115351176Y-56900000D01*
X115351176Y-57400000D01*
X115363018Y-57520239D01*
X115398091Y-57635857D01*
X115455045Y-57742411D01*
X115531693Y-57835807D01*
X115625089Y-57912455D01*
X115703000Y-57954099D01*
X115703001Y-58772064D01*
X113633333Y-60841733D01*
X113631407Y-60839274D01*
X113536560Y-60757726D01*
X113427626Y-60696249D01*
X113308791Y-60657206D01*
X113201750Y-60645000D01*
X113043000Y-60803750D01*
X113043000Y-61129440D01*
X113040012Y-61135030D01*
X113030000Y-61168036D01*
X113019988Y-61135030D01*
X113017000Y-61129440D01*
X113017000Y-60803750D01*
X112858250Y-60645000D01*
X112751209Y-60657206D01*
X112632374Y-60696249D01*
X112523440Y-60757726D01*
X112428593Y-60839274D01*
X112379297Y-60902230D01*
X112316095Y-60908455D01*
X112245030Y-60930012D01*
X112179537Y-60965019D01*
X112122131Y-61012131D01*
X112075019Y-61069537D01*
X112040012Y-61135030D01*
X112018455Y-61206095D01*
X112011176Y-61280000D01*
X112011176Y-61463889D01*
X111022464Y-62452602D01*
X111003318Y-62468315D01*
X110987605Y-62487461D01*
X110987602Y-62487464D01*
X110940585Y-62544754D01*
X110893971Y-62631963D01*
X110865266Y-62726590D01*
X110855574Y-62824999D01*
X110858002Y-62849652D01*
X110858001Y-66313156D01*
X110756465Y-66414692D01*
X110671432Y-66541953D01*
X110612860Y-66683358D01*
X110583001Y-66833473D01*
X110240298Y-66833473D01*
X110319022Y-66737547D01*
X110456172Y-66480958D01*
X110540629Y-66202543D01*
X110569146Y-65913000D01*
X110540629Y-65623457D01*
X110456172Y-65345042D01*
X110319022Y-65088453D01*
X110134450Y-64863550D01*
X109909547Y-64678978D01*
X109652958Y-64541828D01*
X109374543Y-64457371D01*
X109157556Y-64436000D01*
X108012444Y-64436000D01*
X107795457Y-64457371D01*
X107517042Y-64541828D01*
X107260453Y-64678978D01*
X107035550Y-64863550D01*
X106850978Y-65088453D01*
X106713828Y-65345042D01*
X106629371Y-65623457D01*
X106600854Y-65913000D01*
X96998265Y-65913000D01*
X95265597Y-64180332D01*
X95238133Y-64146867D01*
X95104592Y-64037273D01*
X94952237Y-63955838D01*
X94786922Y-63905690D01*
X94615000Y-63888757D01*
X94571921Y-63893000D01*
X84980224Y-63893000D01*
X84980224Y-63713200D01*
X84972945Y-63639295D01*
X84963937Y-63609599D01*
X84972945Y-63579904D01*
X84980224Y-63505999D01*
X84980224Y-62996569D01*
X85052585Y-62937184D01*
X85131937Y-62840493D01*
X85190902Y-62730179D01*
X85227212Y-62610481D01*
X85239472Y-62485999D01*
X85236400Y-62365349D01*
X85077650Y-62206599D01*
X82480500Y-62206599D01*
X82480500Y-62226599D01*
X82226500Y-62226599D01*
X82226500Y-62206599D01*
X82206500Y-62206599D01*
X82206500Y-61952599D01*
X82226500Y-61952599D01*
X82226500Y-61932599D01*
X82480500Y-61932599D01*
X82480500Y-61952599D01*
X85077650Y-61952599D01*
X85236400Y-61793849D01*
X85239472Y-61673199D01*
X85228481Y-61561601D01*
X104523756Y-61561601D01*
X104548399Y-61564028D01*
X104573042Y-61561601D01*
X104573052Y-61561601D01*
X104646808Y-61554337D01*
X104741435Y-61525632D01*
X104828644Y-61479018D01*
X104905083Y-61416285D01*
X104920801Y-61397133D01*
X107835374Y-58482560D01*
X108012444Y-58500000D01*
X109157556Y-58500000D01*
X109374543Y-58478629D01*
X109652958Y-58394172D01*
X109909547Y-58257022D01*
X110134450Y-58072450D01*
X110319022Y-57847547D01*
X110456172Y-57590958D01*
X110540629Y-57312543D01*
X110569146Y-57023000D01*
X110557032Y-56900000D01*
X111541176Y-56900000D01*
X111541176Y-57400000D01*
X111553018Y-57520239D01*
X111588091Y-57635857D01*
X111645045Y-57742411D01*
X111721693Y-57835807D01*
X111815089Y-57912455D01*
X111921643Y-57969409D01*
X112037261Y-58004482D01*
X112157500Y-58016324D01*
X112632500Y-58016324D01*
X112752739Y-58004482D01*
X112868357Y-57969409D01*
X112974911Y-57912455D01*
X113068307Y-57835807D01*
X113144955Y-57742411D01*
X113193280Y-57652000D01*
X113501720Y-57652000D01*
X113550045Y-57742411D01*
X113626693Y-57835807D01*
X113720089Y-57912455D01*
X113826643Y-57969409D01*
X113942261Y-58004482D01*
X114062500Y-58016324D01*
X114537500Y-58016324D01*
X114657739Y-58004482D01*
X114773357Y-57969409D01*
X114879911Y-57912455D01*
X114973307Y-57835807D01*
X115049955Y-57742411D01*
X115106909Y-57635857D01*
X115141982Y-57520239D01*
X115153824Y-57400000D01*
X115153824Y-56900000D01*
X115141982Y-56779761D01*
X115106909Y-56664143D01*
X115049955Y-56557589D01*
X114973307Y-56464193D01*
X114879911Y-56387545D01*
X114773357Y-56330591D01*
X114657739Y-56295518D01*
X114537500Y-56283676D01*
X114062500Y-56283676D01*
X113942261Y-56295518D01*
X113826643Y-56330591D01*
X113720089Y-56387545D01*
X113626693Y-56464193D01*
X113550045Y-56557589D01*
X113501720Y-56648000D01*
X113193280Y-56648000D01*
X113144955Y-56557589D01*
X113068307Y-56464193D01*
X112974911Y-56387545D01*
X112868357Y-56330591D01*
X112752739Y-56295518D01*
X112632500Y-56283676D01*
X112157500Y-56283676D01*
X112037261Y-56295518D01*
X111921643Y-56330591D01*
X111815089Y-56387545D01*
X111721693Y-56464193D01*
X111645045Y-56557589D01*
X111588091Y-56664143D01*
X111553018Y-56779761D01*
X111541176Y-56900000D01*
X110557032Y-56900000D01*
X110540629Y-56733457D01*
X110456172Y-56455042D01*
X110319022Y-56198453D01*
X110134450Y-55973550D01*
X109909547Y-55788978D01*
X109652958Y-55651828D01*
X109374543Y-55567371D01*
X109157556Y-55546000D01*
X108012444Y-55546000D01*
X107795457Y-55567371D01*
X107517042Y-55651828D01*
X107260453Y-55788978D01*
X107035550Y-55973550D01*
X106850978Y-56198453D01*
X106824850Y-56247335D01*
X106788157Y-56164683D01*
X106591633Y-55885973D01*
X106344511Y-55650958D01*
X106056288Y-55468670D01*
X105738041Y-55346114D01*
X105402000Y-55288000D01*
X104902000Y-55288000D01*
X104902000Y-56896000D01*
X104922000Y-56896000D01*
X104922000Y-57150000D01*
X104902000Y-57150000D01*
X104902000Y-58758000D01*
X105402000Y-58758000D01*
X105738041Y-58699886D01*
X106056288Y-58577330D01*
X106344511Y-58395042D01*
X106591633Y-58160027D01*
X106788157Y-57881317D01*
X106824850Y-57798665D01*
X106850978Y-57847547D01*
X106940921Y-57957144D01*
X104340465Y-60557601D01*
X84966364Y-60557601D01*
X84963937Y-60549601D01*
X84972945Y-60519906D01*
X84980224Y-60446001D01*
X84980224Y-59633201D01*
X84972945Y-59559296D01*
X84972249Y-59557000D01*
X95288155Y-59557000D01*
X95389691Y-59658536D01*
X95516952Y-59743569D01*
X95658357Y-59802141D01*
X95808472Y-59832000D01*
X95961528Y-59832000D01*
X96111643Y-59802141D01*
X96253048Y-59743569D01*
X96380309Y-59658536D01*
X96488536Y-59550309D01*
X96573569Y-59423048D01*
X96632141Y-59281643D01*
X96662000Y-59131528D01*
X96662000Y-58978472D01*
X96632141Y-58828357D01*
X96573569Y-58686952D01*
X96488536Y-58559691D01*
X96380309Y-58451464D01*
X96253048Y-58366431D01*
X96111643Y-58307859D01*
X95961528Y-58278000D01*
X95808472Y-58278000D01*
X95658357Y-58307859D01*
X95516952Y-58366431D01*
X95389691Y-58451464D01*
X95288155Y-58553000D01*
X85220381Y-58553000D01*
X85227212Y-58530482D01*
X85239472Y-58406000D01*
X85236400Y-58285350D01*
X85077650Y-58126600D01*
X82480500Y-58126600D01*
X82480500Y-58146600D01*
X82226500Y-58146600D01*
X82226500Y-58126600D01*
X82206500Y-58126600D01*
X82206500Y-57872600D01*
X82226500Y-57872600D01*
X82226500Y-57116950D01*
X82480500Y-57116950D01*
X82480500Y-57872600D01*
X85077650Y-57872600D01*
X85236400Y-57713850D01*
X85239472Y-57593200D01*
X85227212Y-57468718D01*
X85212168Y-57419122D01*
X98775825Y-57419122D01*
X98813469Y-57569622D01*
X98951843Y-57881317D01*
X99148367Y-58160027D01*
X99395489Y-58395042D01*
X99683712Y-58577330D01*
X100001959Y-58699886D01*
X100338000Y-58758000D01*
X100838000Y-58758000D01*
X100838000Y-57150000D01*
X101092000Y-57150000D01*
X101092000Y-58758000D01*
X101592000Y-58758000D01*
X101928041Y-58699886D01*
X102246288Y-58577330D01*
X102534511Y-58395042D01*
X102781633Y-58160027D01*
X102870000Y-58034705D01*
X102958367Y-58160027D01*
X103205489Y-58395042D01*
X103493712Y-58577330D01*
X103811959Y-58699886D01*
X104148000Y-58758000D01*
X104648000Y-58758000D01*
X104648000Y-57150000D01*
X101092000Y-57150000D01*
X100838000Y-57150000D01*
X98893875Y-57150000D01*
X98775825Y-57419122D01*
X85212168Y-57419122D01*
X85190902Y-57349020D01*
X85131937Y-57238706D01*
X85052585Y-57142015D01*
X84955894Y-57062663D01*
X84845580Y-57003698D01*
X84725882Y-56967388D01*
X84601400Y-56955128D01*
X82639250Y-56958200D01*
X82480500Y-57116950D01*
X82226500Y-57116950D01*
X82067750Y-56958200D01*
X80170001Y-56955229D01*
X80170001Y-55581658D01*
X80240415Y-54863524D01*
X80443268Y-54191643D01*
X80772757Y-53571965D01*
X81216335Y-53028083D01*
X81757103Y-52580722D01*
X82374469Y-52246914D01*
X83044909Y-52039378D01*
X83761840Y-51964025D01*
X83768823Y-51964001D01*
X89743402Y-51964001D01*
X89743402Y-54141624D01*
X89744631Y-54154163D01*
X89744142Y-54166755D01*
X89748690Y-54195553D01*
X89751534Y-54224562D01*
X89755175Y-54236622D01*
X89757141Y-54249070D01*
X89767197Y-54276441D01*
X89775621Y-54304341D01*
X89781534Y-54315462D01*
X89785881Y-54327293D01*
X89801063Y-54352191D01*
X89814745Y-54377922D01*
X89822707Y-54387685D01*
X89829268Y-54398444D01*
X89848989Y-54419910D01*
X89867415Y-54442503D01*
X89877125Y-54450535D01*
X89885648Y-54459813D01*
X89909164Y-54477041D01*
X89931627Y-54495623D01*
X89942712Y-54501616D01*
X89952875Y-54509062D01*
X89979285Y-54521392D01*
X90004933Y-54535260D01*
X90016972Y-54538987D01*
X90028387Y-54544316D01*
X90056691Y-54551282D01*
X90084542Y-54559903D01*
X90097074Y-54561220D01*
X90109308Y-54564231D01*
X90138425Y-54565566D01*
X90167421Y-54568614D01*
X90179971Y-54567472D01*
X90192556Y-54568049D01*
X90198508Y-54567698D01*
X90244684Y-54564652D01*
X90212284Y-54642872D01*
X90136301Y-55024863D01*
X90136301Y-55414337D01*
X90212284Y-55796328D01*
X90361329Y-56156155D01*
X90577709Y-56479992D01*
X90853109Y-56755392D01*
X91176946Y-56971772D01*
X91536773Y-57120817D01*
X91918764Y-57196800D01*
X92308238Y-57196800D01*
X92690229Y-57120817D01*
X93050056Y-56971772D01*
X93373893Y-56755392D01*
X93502407Y-56626878D01*
X98775825Y-56626878D01*
X98893875Y-56896000D01*
X100838000Y-56896000D01*
X100838000Y-55288000D01*
X101092000Y-55288000D01*
X101092000Y-56896000D01*
X104648000Y-56896000D01*
X104648000Y-55288000D01*
X104148000Y-55288000D01*
X103811959Y-55346114D01*
X103493712Y-55468670D01*
X103205489Y-55650958D01*
X102958367Y-55885973D01*
X102870000Y-56011295D01*
X102781633Y-55885973D01*
X102534511Y-55650958D01*
X102246288Y-55468670D01*
X101928041Y-55346114D01*
X101592000Y-55288000D01*
X101092000Y-55288000D01*
X100838000Y-55288000D01*
X100338000Y-55288000D01*
X100001959Y-55346114D01*
X99683712Y-55468670D01*
X99395489Y-55650958D01*
X99148367Y-55885973D01*
X98951843Y-56164683D01*
X98813469Y-56476378D01*
X98775825Y-56626878D01*
X93502407Y-56626878D01*
X93649293Y-56479992D01*
X93865673Y-56156155D01*
X94014718Y-55796328D01*
X94090701Y-55414337D01*
X94090701Y-55075000D01*
X111541176Y-55075000D01*
X111541176Y-55575000D01*
X111553018Y-55695239D01*
X111588091Y-55810857D01*
X111645045Y-55917411D01*
X111721693Y-56010807D01*
X111815089Y-56087455D01*
X111921643Y-56144409D01*
X112037261Y-56179482D01*
X112157500Y-56191324D01*
X112632500Y-56191324D01*
X112752739Y-56179482D01*
X112868357Y-56144409D01*
X112974911Y-56087455D01*
X113068307Y-56010807D01*
X113144955Y-55917411D01*
X113201909Y-55810857D01*
X113236982Y-55695239D01*
X113248824Y-55575000D01*
X113248824Y-55075000D01*
X113446176Y-55075000D01*
X113446176Y-55575000D01*
X113458018Y-55695239D01*
X113493091Y-55810857D01*
X113550045Y-55917411D01*
X113626693Y-56010807D01*
X113720089Y-56087455D01*
X113826643Y-56144409D01*
X113942261Y-56179482D01*
X114062500Y-56191324D01*
X114537500Y-56191324D01*
X114657739Y-56179482D01*
X114773357Y-56144409D01*
X114879911Y-56087455D01*
X114973307Y-56010807D01*
X115049955Y-55917411D01*
X115098280Y-55827000D01*
X115406720Y-55827000D01*
X115455045Y-55917411D01*
X115531693Y-56010807D01*
X115625089Y-56087455D01*
X115731643Y-56144409D01*
X115847261Y-56179482D01*
X115967500Y-56191324D01*
X116442500Y-56191324D01*
X116562739Y-56179482D01*
X116678357Y-56144409D01*
X116784911Y-56087455D01*
X116878307Y-56010807D01*
X116954955Y-55917411D01*
X117011909Y-55810857D01*
X117046982Y-55695239D01*
X117058824Y-55575000D01*
X117058824Y-55075000D01*
X117256176Y-55075000D01*
X117256176Y-55575000D01*
X117268018Y-55695239D01*
X117303091Y-55810857D01*
X117360045Y-55917411D01*
X117436693Y-56010807D01*
X117530089Y-56087455D01*
X117636643Y-56144409D01*
X117752261Y-56179482D01*
X117872500Y-56191324D01*
X118347500Y-56191324D01*
X118467739Y-56179482D01*
X118583357Y-56144409D01*
X118689911Y-56087455D01*
X118783307Y-56010807D01*
X118859955Y-55917411D01*
X118908280Y-55827000D01*
X119216720Y-55827000D01*
X119265045Y-55917411D01*
X119341693Y-56010807D01*
X119435089Y-56087455D01*
X119541643Y-56144409D01*
X119657261Y-56179482D01*
X119777500Y-56191324D01*
X120252500Y-56191324D01*
X120372739Y-56179482D01*
X120488357Y-56144409D01*
X120594911Y-56087455D01*
X120688307Y-56010807D01*
X120764955Y-55917411D01*
X120821909Y-55810857D01*
X120856982Y-55695239D01*
X120868824Y-55575000D01*
X120868824Y-55075000D01*
X120856982Y-54954761D01*
X120821909Y-54839143D01*
X120764955Y-54732589D01*
X120688307Y-54639193D01*
X120594911Y-54562545D01*
X120488357Y-54505591D01*
X120372739Y-54470518D01*
X120252500Y-54458676D01*
X119777500Y-54458676D01*
X119657261Y-54470518D01*
X119541643Y-54505591D01*
X119435089Y-54562545D01*
X119341693Y-54639193D01*
X119265045Y-54732589D01*
X119216720Y-54823000D01*
X118908280Y-54823000D01*
X118859955Y-54732589D01*
X118783307Y-54639193D01*
X118689911Y-54562545D01*
X118583357Y-54505591D01*
X118467739Y-54470518D01*
X118347500Y-54458676D01*
X117872500Y-54458676D01*
X117752261Y-54470518D01*
X117636643Y-54505591D01*
X117530089Y-54562545D01*
X117436693Y-54639193D01*
X117360045Y-54732589D01*
X117303091Y-54839143D01*
X117268018Y-54954761D01*
X117256176Y-55075000D01*
X117058824Y-55075000D01*
X117046982Y-54954761D01*
X117011909Y-54839143D01*
X116954955Y-54732589D01*
X116878307Y-54639193D01*
X116784911Y-54562545D01*
X116678357Y-54505591D01*
X116562739Y-54470518D01*
X116442500Y-54458676D01*
X115967500Y-54458676D01*
X115847261Y-54470518D01*
X115731643Y-54505591D01*
X115625089Y-54562545D01*
X115531693Y-54639193D01*
X115455045Y-54732589D01*
X115406720Y-54823000D01*
X115098280Y-54823000D01*
X115049955Y-54732589D01*
X114973307Y-54639193D01*
X114879911Y-54562545D01*
X114773357Y-54505591D01*
X114657739Y-54470518D01*
X114537500Y-54458676D01*
X114062500Y-54458676D01*
X113942261Y-54470518D01*
X113826643Y-54505591D01*
X113720089Y-54562545D01*
X113626693Y-54639193D01*
X113550045Y-54732589D01*
X113493091Y-54839143D01*
X113458018Y-54954761D01*
X113446176Y-55075000D01*
X113248824Y-55075000D01*
X113236982Y-54954761D01*
X113201909Y-54839143D01*
X113179544Y-54797301D01*
X113252536Y-54724309D01*
X113337569Y-54597048D01*
X113396141Y-54455643D01*
X113426000Y-54305528D01*
X113426000Y-54152472D01*
X113396141Y-54002357D01*
X113337569Y-53860952D01*
X113252536Y-53733691D01*
X113144309Y-53625464D01*
X113017048Y-53540431D01*
X112875643Y-53481859D01*
X112725528Y-53452000D01*
X112572472Y-53452000D01*
X112422357Y-53481859D01*
X112280952Y-53540431D01*
X112153691Y-53625464D01*
X112045464Y-53733691D01*
X111960431Y-53860952D01*
X111901859Y-54002357D01*
X111872000Y-54152472D01*
X111872000Y-54305528D01*
X111896113Y-54426753D01*
X111890573Y-54483000D01*
X111893001Y-54507652D01*
X111893001Y-54520900D01*
X111815089Y-54562545D01*
X111721693Y-54639193D01*
X111645045Y-54732589D01*
X111588091Y-54839143D01*
X111553018Y-54954761D01*
X111541176Y-55075000D01*
X94090701Y-55075000D01*
X94090701Y-55024863D01*
X94014718Y-54642872D01*
X93982318Y-54564652D01*
X94028496Y-54567698D01*
X94041087Y-54567297D01*
X94053621Y-54568614D01*
X94082655Y-54565972D01*
X94111790Y-54565043D01*
X94124065Y-54562203D01*
X94136614Y-54561061D01*
X94164587Y-54552828D01*
X94192981Y-54546259D01*
X94204466Y-54541091D01*
X94216559Y-54537532D01*
X94242401Y-54524022D01*
X94268978Y-54512063D01*
X94279246Y-54504759D01*
X94290411Y-54498922D01*
X94313123Y-54480661D01*
X94336886Y-54463758D01*
X94345542Y-54454596D01*
X94355358Y-54446704D01*
X94374093Y-54424376D01*
X94394117Y-54403182D01*
X94400828Y-54392515D01*
X94408925Y-54382865D01*
X94422965Y-54357326D01*
X94438493Y-54332644D01*
X94443004Y-54320876D01*
X94449073Y-54309837D01*
X94457884Y-54282061D01*
X94468323Y-54254830D01*
X94470463Y-54242406D01*
X94474271Y-54230402D01*
X94477519Y-54201447D01*
X94482470Y-54172704D01*
X94482156Y-54160101D01*
X94483560Y-54147586D01*
X94483602Y-54141624D01*
X94483602Y-51964000D01*
X118598332Y-51963999D01*
X119316480Y-52034414D01*
%TA.AperFunction,Conductor*%
D22*
G36*
X119316480Y-52034414D02*
G01*
X119988355Y-52237265D01*
X120608035Y-52566755D01*
X121151914Y-53010331D01*
X121599278Y-53551098D01*
X121933087Y-54168466D01*
X122140624Y-54838909D01*
X122215977Y-55555838D01*
X122216002Y-55563108D01*
X122216001Y-67542343D01*
X122145587Y-68260479D01*
X121942736Y-68932353D01*
X121613245Y-69552037D01*
X121169668Y-70095915D01*
X120628903Y-70543276D01*
X120011534Y-70877086D01*
X119341092Y-71084622D01*
X118624163Y-71159975D01*
X118617180Y-71159999D01*
X113733285Y-71159999D01*
X113736245Y-71158417D01*
X113812684Y-71095684D01*
X113828401Y-71076533D01*
X113961111Y-70943824D01*
X114480000Y-70943824D01*
X114553905Y-70936545D01*
X114624970Y-70914988D01*
X114690463Y-70879981D01*
X114747869Y-70832869D01*
X114794981Y-70775463D01*
X114829988Y-70709970D01*
X114851545Y-70638905D01*
X114858824Y-70565000D01*
X114858824Y-69765000D01*
X114851545Y-69691095D01*
X114829988Y-69620030D01*
X114794981Y-69554537D01*
X114747869Y-69497131D01*
X114690463Y-69450019D01*
X114624970Y-69415012D01*
X114553905Y-69393455D01*
X114480000Y-69386176D01*
X113580000Y-69386176D01*
X113506095Y-69393455D01*
X113435030Y-69415012D01*
X113369537Y-69450019D01*
X113312131Y-69497131D01*
X113265019Y-69554537D01*
X113230012Y-69620030D01*
X113208455Y-69691095D01*
X113201176Y-69765000D01*
X113201176Y-69980826D01*
X113106528Y-69962000D01*
X112953472Y-69962000D01*
X112803357Y-69991859D01*
X112661952Y-70050431D01*
X112534691Y-70135464D01*
X112426464Y-70243691D01*
X112341431Y-70370952D01*
X112282859Y-70512357D01*
X112253000Y-70662472D01*
X112253000Y-70815528D01*
X112282859Y-70965643D01*
X112341431Y-71107048D01*
X112376812Y-71159999D01*
X94483602Y-71160000D01*
X94483602Y-68997576D01*
X94482373Y-68985038D01*
X94482862Y-68972445D01*
X94478314Y-68943647D01*
X94475470Y-68914638D01*
X94471829Y-68902578D01*
X94469863Y-68890130D01*
X94459807Y-68862759D01*
X94451383Y-68834859D01*
X94445470Y-68823738D01*
X94441123Y-68811907D01*
X94425941Y-68787009D01*
X94412259Y-68761278D01*
X94404297Y-68751515D01*
X94397736Y-68740756D01*
X94378015Y-68719290D01*
X94359589Y-68696697D01*
X94349879Y-68688665D01*
X94341356Y-68679387D01*
X94317837Y-68662157D01*
X94295377Y-68643577D01*
X94284296Y-68637585D01*
X94274130Y-68630138D01*
X94247715Y-68617806D01*
X94222071Y-68603940D01*
X94210033Y-68600214D01*
X94198617Y-68594884D01*
X94170313Y-68587918D01*
X94142462Y-68579297D01*
X94129930Y-68577980D01*
X94117696Y-68574969D01*
X94088579Y-68573634D01*
X94059583Y-68570586D01*
X94047033Y-68571728D01*
X94034448Y-68571151D01*
X94028496Y-68571502D01*
X93982318Y-68574548D01*
X94014718Y-68496328D01*
X94090701Y-68114337D01*
X94090701Y-67724863D01*
X94014718Y-67342872D01*
X93865673Y-66983045D01*
X93649293Y-66659208D01*
X93373893Y-66383808D01*
X93050056Y-66167428D01*
X92690229Y-66018383D01*
X92308238Y-65942400D01*
X91918764Y-65942400D01*
X91536773Y-66018383D01*
X91176946Y-66167428D01*
X90853109Y-66383808D01*
X90577709Y-66659208D01*
X90361329Y-66983045D01*
X90212284Y-67342872D01*
X90136301Y-67724863D01*
X90136301Y-68114337D01*
X90212284Y-68496328D01*
X90244684Y-68574548D01*
X90198508Y-68571502D01*
X90185917Y-68571903D01*
X90173383Y-68570586D01*
X90144349Y-68573228D01*
X90115214Y-68574157D01*
X90102939Y-68576997D01*
X90090390Y-68578139D01*
X90062417Y-68586372D01*
X90034023Y-68592941D01*
X90022538Y-68598109D01*
X90010445Y-68601668D01*
X89984603Y-68615178D01*
X89958026Y-68627137D01*
X89947759Y-68634441D01*
X89936593Y-68640278D01*
X89913876Y-68658543D01*
X89890119Y-68675442D01*
X89881466Y-68684601D01*
X89871646Y-68692496D01*
X89852908Y-68714827D01*
X89832887Y-68736018D01*
X89826176Y-68746685D01*
X89818079Y-68756335D01*
X89804039Y-68781874D01*
X89788511Y-68806556D01*
X89784000Y-68818324D01*
X89777931Y-68829363D01*
X89769117Y-68857148D01*
X89758682Y-68884370D01*
X89756543Y-68896788D01*
X89752733Y-68908798D01*
X89749485Y-68937758D01*
X89744534Y-68966496D01*
X89744848Y-68979099D01*
X89743444Y-68991614D01*
X89743402Y-68997576D01*
X89743402Y-71160001D01*
X83787668Y-71160001D01*
X83069521Y-71089586D01*
X82397647Y-70886735D01*
X81777963Y-70557244D01*
X81234085Y-70113667D01*
X80786724Y-69572902D01*
X80452914Y-68955533D01*
X80245378Y-68285091D01*
X80170025Y-67568162D01*
X80170001Y-67561180D01*
X80170001Y-65924824D01*
X84601400Y-65924824D01*
X84675305Y-65917545D01*
X84746370Y-65895988D01*
X84811863Y-65860981D01*
X84869269Y-65813869D01*
X84916381Y-65756463D01*
X84951388Y-65690970D01*
X84964726Y-65647000D01*
X94251735Y-65647000D01*
X98409403Y-69804668D01*
X98436867Y-69838133D01*
X98570408Y-69947727D01*
X98722763Y-70029162D01*
X98888078Y-70079310D01*
X99016921Y-70092000D01*
X99016930Y-70092000D01*
X99059999Y-70096242D01*
X99103069Y-70092000D01*
X112073079Y-70092000D01*
X112201922Y-70079310D01*
X112367237Y-70029162D01*
X112433350Y-69993824D01*
X112480000Y-69993824D01*
X112553905Y-69986545D01*
X112624970Y-69964988D01*
X112690463Y-69929981D01*
X112747869Y-69882869D01*
X112794981Y-69825463D01*
X112829988Y-69759970D01*
X112851545Y-69688905D01*
X112858824Y-69615000D01*
X112858824Y-69503903D01*
X112894310Y-69386922D01*
X112911243Y-69215000D01*
X112894310Y-69043078D01*
X112858824Y-68926097D01*
X112858824Y-68815000D01*
X112851545Y-68741095D01*
X112829988Y-68670030D01*
X112794981Y-68604537D01*
X112747869Y-68547131D01*
X112690463Y-68500019D01*
X112624970Y-68465012D01*
X112553905Y-68443455D01*
X112480000Y-68436176D01*
X112433350Y-68436176D01*
X112367237Y-68400838D01*
X112201922Y-68350690D01*
X112073079Y-68338000D01*
X99423265Y-68338000D01*
X96998265Y-65913000D01*
X106600854Y-65913000D01*
X106629371Y-66202543D01*
X106713828Y-66480958D01*
X106850978Y-66737547D01*
X107035550Y-66962450D01*
X107260453Y-67147022D01*
X107517042Y-67284172D01*
X107795457Y-67368629D01*
X108012444Y-67390000D01*
X109157556Y-67390000D01*
X109374543Y-67368629D01*
X109652958Y-67284172D01*
X109909547Y-67147022D01*
X110134450Y-66962450D01*
X110240298Y-66833473D01*
X110583001Y-66833473D01*
X110583001Y-66986529D01*
X110612860Y-67136644D01*
X110671432Y-67278049D01*
X110756465Y-67405310D01*
X110864692Y-67513537D01*
X110991953Y-67598570D01*
X111133358Y-67657142D01*
X111283473Y-67687001D01*
X111436529Y-67687001D01*
X111586644Y-67657142D01*
X111728049Y-67598570D01*
X111855310Y-67513537D01*
X111963537Y-67405310D01*
X112048570Y-67278049D01*
X112107142Y-67136644D01*
X112137001Y-66986529D01*
X112137001Y-66833473D01*
X112107142Y-66683358D01*
X112048570Y-66541953D01*
X111963537Y-66414692D01*
X111862001Y-66313156D01*
X111862001Y-63535796D01*
X111929274Y-63621438D01*
X112024247Y-63702839D01*
X112133275Y-63764147D01*
X112252170Y-63803008D01*
X112358250Y-63815000D01*
X112402998Y-63770252D01*
X112402998Y-63815000D01*
X112528000Y-63815000D01*
X112528000Y-64155357D01*
X112525573Y-64180000D01*
X112535265Y-64278409D01*
X112563970Y-64373036D01*
X112610584Y-64460245D01*
X112657601Y-64517535D01*
X112657604Y-64517538D01*
X112673317Y-64536684D01*
X112692463Y-64552397D01*
X114239185Y-66099120D01*
X114249371Y-66202543D01*
X114333828Y-66480958D01*
X114417409Y-66637326D01*
X113567309Y-67487426D01*
X113506095Y-67493455D01*
X113435030Y-67515012D01*
X113369537Y-67550019D01*
X113312131Y-67597131D01*
X113265019Y-67654537D01*
X113230012Y-67720030D01*
X113208455Y-67791095D01*
X113201176Y-67865000D01*
X113201176Y-67976098D01*
X113165690Y-68093078D01*
X113148757Y-68265000D01*
X113165690Y-68436922D01*
X113201176Y-68553902D01*
X113201176Y-68665000D01*
X113208455Y-68738905D01*
X113230012Y-68809970D01*
X113265019Y-68875463D01*
X113312131Y-68932869D01*
X113369537Y-68979981D01*
X113435030Y-69014988D01*
X113506095Y-69036545D01*
X113580000Y-69043824D01*
X113626651Y-69043824D01*
X113692764Y-69079162D01*
X113858078Y-69129310D01*
X114030000Y-69146243D01*
X114201922Y-69129310D01*
X114367236Y-69079162D01*
X114433349Y-69043824D01*
X114480000Y-69043824D01*
X114553905Y-69036545D01*
X114624970Y-69014988D01*
X114690463Y-68979981D01*
X114747869Y-68932869D01*
X114794981Y-68875463D01*
X114829988Y-68809970D01*
X114851545Y-68738905D01*
X114857574Y-68677691D01*
X116145265Y-67390000D01*
X116777556Y-67390000D01*
X116994543Y-67368629D01*
X117272958Y-67284172D01*
X117529547Y-67147022D01*
X117754450Y-66962450D01*
X117939022Y-66737547D01*
X118076172Y-66480958D01*
X118160629Y-66202543D01*
X118189146Y-65913000D01*
X118160629Y-65623457D01*
X118076172Y-65345042D01*
X117939022Y-65088453D01*
X117754450Y-64863550D01*
X117529547Y-64678978D01*
X117272958Y-64541828D01*
X116994543Y-64457371D01*
X116777556Y-64436000D01*
X115632444Y-64436000D01*
X115415457Y-64457371D01*
X115137042Y-64541828D01*
X114880453Y-64678978D01*
X114655550Y-64863550D01*
X114550946Y-64991011D01*
X113532000Y-63972066D01*
X113532000Y-63815000D01*
X113657002Y-63815000D01*
X113657002Y-63770252D01*
X113701750Y-63815000D01*
X113808791Y-63802794D01*
X113927626Y-63763751D01*
X114036560Y-63702274D01*
X114131407Y-63620726D01*
X114208522Y-63522242D01*
X114264943Y-63410605D01*
X114298500Y-63290107D01*
X114307904Y-63165377D01*
X114305000Y-63090750D01*
X114269250Y-63055000D01*
X118211928Y-63055000D01*
X118224188Y-63179482D01*
X118260498Y-63299180D01*
X118319463Y-63409494D01*
X118398815Y-63506185D01*
X118495506Y-63585537D01*
X118605820Y-63644502D01*
X118725518Y-63680812D01*
X118850000Y-63693072D01*
X119364250Y-63690000D01*
X119523000Y-63531250D01*
X119523000Y-62432000D01*
X119777000Y-62432000D01*
X119777000Y-63531250D01*
X119935750Y-63690000D01*
X120450000Y-63693072D01*
X120574482Y-63680812D01*
X120694180Y-63644502D01*
X120804494Y-63585537D01*
X120901185Y-63506185D01*
X120980537Y-63409494D01*
X121039502Y-63299180D01*
X121075812Y-63179482D01*
X121088072Y-63055000D01*
X121085000Y-62590750D01*
X120926250Y-62432000D01*
X119777000Y-62432000D01*
X119523000Y-62432000D01*
X118373750Y-62432000D01*
X118215000Y-62590750D01*
X118211928Y-63055000D01*
X114269250Y-63055000D01*
X114146250Y-62932000D01*
X113548824Y-62932000D01*
X113548824Y-62678000D01*
X114146250Y-62678000D01*
X114305000Y-62519250D01*
X114307904Y-62444623D01*
X114298500Y-62319893D01*
X114264943Y-62199395D01*
X114208522Y-62087758D01*
X114131407Y-61989274D01*
X114048824Y-61918270D01*
X114048824Y-61846110D01*
X114339934Y-61555000D01*
X118211928Y-61555000D01*
X118215000Y-62019250D01*
X118373750Y-62178000D01*
X119523000Y-62178000D01*
X119523000Y-61078750D01*
X119777000Y-61078750D01*
X119777000Y-62178000D01*
X120926250Y-62178000D01*
X121085000Y-62019250D01*
X121088072Y-61555000D01*
X121075812Y-61430518D01*
X121039502Y-61310820D01*
X120980537Y-61200506D01*
X120901185Y-61103815D01*
X120804494Y-61024463D01*
X120694180Y-60965498D01*
X120574482Y-60929188D01*
X120450000Y-60916928D01*
X119935750Y-60920000D01*
X119777000Y-61078750D01*
X119523000Y-61078750D01*
X119364250Y-60920000D01*
X118850000Y-60916928D01*
X118725518Y-60929188D01*
X118605820Y-60965498D01*
X118495506Y-61024463D01*
X118398815Y-61103815D01*
X118319463Y-61200506D01*
X118260498Y-61310820D01*
X118224188Y-61430518D01*
X118211928Y-61555000D01*
X114339934Y-61555000D01*
X116542538Y-59352397D01*
X116561684Y-59336684D01*
X116624417Y-59260245D01*
X116671031Y-59173036D01*
X116699736Y-59078409D01*
X116707000Y-59004653D01*
X116707000Y-59004644D01*
X116709427Y-58980001D01*
X116707000Y-58955358D01*
X116707000Y-58455000D01*
X117671176Y-58455000D01*
X117671176Y-59655000D01*
X117678455Y-59728905D01*
X117700012Y-59799970D01*
X117735019Y-59865463D01*
X117782131Y-59922869D01*
X117839537Y-59969981D01*
X117905030Y-60004988D01*
X117976095Y-60026545D01*
X118050000Y-60033824D01*
X119250000Y-60033824D01*
X119323905Y-60026545D01*
X119394970Y-60004988D01*
X119460463Y-59969981D01*
X119517869Y-59922869D01*
X119564981Y-59865463D01*
X119599988Y-59799970D01*
X119621545Y-59728905D01*
X119628824Y-59655000D01*
X119628824Y-58455000D01*
X119621545Y-58381095D01*
X119599988Y-58310030D01*
X119564981Y-58244537D01*
X119517869Y-58187131D01*
X119460463Y-58140019D01*
X119394970Y-58105012D01*
X119323905Y-58083455D01*
X119250000Y-58076176D01*
X118050000Y-58076176D01*
X117976095Y-58083455D01*
X117905030Y-58105012D01*
X117839537Y-58140019D01*
X117782131Y-58187131D01*
X117735019Y-58244537D01*
X117700012Y-58310030D01*
X117678455Y-58381095D01*
X117671176Y-58455000D01*
X116707000Y-58455000D01*
X116707000Y-57954099D01*
X116784911Y-57912455D01*
X116878307Y-57835807D01*
X116954955Y-57742411D01*
X117003280Y-57652000D01*
X117311720Y-57652000D01*
X117360045Y-57742411D01*
X117436693Y-57835807D01*
X117530089Y-57912455D01*
X117636643Y-57969409D01*
X117752261Y-58004482D01*
X117872500Y-58016324D01*
X118347500Y-58016324D01*
X118467739Y-58004482D01*
X118583357Y-57969409D01*
X118689911Y-57912455D01*
X118783307Y-57835807D01*
X118859955Y-57742411D01*
X118916909Y-57635857D01*
X118951982Y-57520239D01*
X118963824Y-57400000D01*
X118963824Y-56900000D01*
X119161176Y-56900000D01*
X119161176Y-57400000D01*
X119173018Y-57520239D01*
X119208091Y-57635857D01*
X119265045Y-57742411D01*
X119341693Y-57835807D01*
X119435089Y-57912455D01*
X119541643Y-57969409D01*
X119657261Y-58004482D01*
X119777500Y-58016324D01*
X120148000Y-58016324D01*
X120148000Y-58076176D01*
X120050000Y-58076176D01*
X119976095Y-58083455D01*
X119905030Y-58105012D01*
X119839537Y-58140019D01*
X119782131Y-58187131D01*
X119735019Y-58244537D01*
X119700012Y-58310030D01*
X119678455Y-58381095D01*
X119671176Y-58455000D01*
X119671176Y-59655000D01*
X119678455Y-59728905D01*
X119700012Y-59799970D01*
X119735019Y-59865463D01*
X119782131Y-59922869D01*
X119839537Y-59969981D01*
X119905030Y-60004988D01*
X119976095Y-60026545D01*
X120050000Y-60033824D01*
X121250000Y-60033824D01*
X121323905Y-60026545D01*
X121394970Y-60004988D01*
X121460463Y-59969981D01*
X121517869Y-59922869D01*
X121564981Y-59865463D01*
X121599988Y-59799970D01*
X121621545Y-59728905D01*
X121628824Y-59655000D01*
X121628824Y-58455000D01*
X121621545Y-58381095D01*
X121599988Y-58310030D01*
X121564981Y-58244537D01*
X121517869Y-58187131D01*
X121460463Y-58140019D01*
X121394970Y-58105012D01*
X121323905Y-58083455D01*
X121250000Y-58076176D01*
X121152000Y-58076176D01*
X121152000Y-57809645D01*
X121154427Y-57785000D01*
X121152000Y-57760354D01*
X121152000Y-57760347D01*
X121144736Y-57686591D01*
X121134243Y-57652000D01*
X121116031Y-57591963D01*
X121069417Y-57504754D01*
X121022400Y-57447464D01*
X121022392Y-57447456D01*
X121006684Y-57428316D01*
X120987543Y-57412607D01*
X120868824Y-57293888D01*
X120868824Y-56900000D01*
X120856982Y-56779761D01*
X120821909Y-56664143D01*
X120764955Y-56557589D01*
X120688307Y-56464193D01*
X120594911Y-56387545D01*
X120488357Y-56330591D01*
X120372739Y-56295518D01*
X120252500Y-56283676D01*
X119777500Y-56283676D01*
X119657261Y-56295518D01*
X119541643Y-56330591D01*
X119435089Y-56387545D01*
X119341693Y-56464193D01*
X119265045Y-56557589D01*
X119208091Y-56664143D01*
X119173018Y-56779761D01*
X119161176Y-56900000D01*
X118963824Y-56900000D01*
X118951982Y-56779761D01*
X118916909Y-56664143D01*
X118859955Y-56557589D01*
X118783307Y-56464193D01*
X118689911Y-56387545D01*
X118583357Y-56330591D01*
X118467739Y-56295518D01*
X118347500Y-56283676D01*
X117872500Y-56283676D01*
X117752261Y-56295518D01*
X117636643Y-56330591D01*
X117530089Y-56387545D01*
X117436693Y-56464193D01*
X117360045Y-56557589D01*
X117311720Y-56648000D01*
X117003280Y-56648000D01*
X116954955Y-56557589D01*
X116878307Y-56464193D01*
X116784911Y-56387545D01*
X116678357Y-56330591D01*
X116562739Y-56295518D01*
X116442500Y-56283676D01*
X115967500Y-56283676D01*
X115847261Y-56295518D01*
X115731643Y-56330591D01*
X115625089Y-56387545D01*
X115531693Y-56464193D01*
X115455045Y-56557589D01*
X115398091Y-56664143D01*
X115363018Y-56779761D01*
X115351176Y-56900000D01*
X115351176Y-57400000D01*
X115363018Y-57520239D01*
X115398091Y-57635857D01*
X115455045Y-57742411D01*
X115531693Y-57835807D01*
X115625089Y-57912455D01*
X115703000Y-57954099D01*
X115703001Y-58772064D01*
X113633333Y-60841733D01*
X113631407Y-60839274D01*
X113536560Y-60757726D01*
X113427626Y-60696249D01*
X113308791Y-60657206D01*
X113201750Y-60645000D01*
X113043000Y-60803750D01*
X113043000Y-61129440D01*
X113040012Y-61135030D01*
X113030000Y-61168036D01*
X113019988Y-61135030D01*
X113017000Y-61129440D01*
X113017000Y-60803750D01*
X112858250Y-60645000D01*
X112751209Y-60657206D01*
X112632374Y-60696249D01*
X112523440Y-60757726D01*
X112428593Y-60839274D01*
X112379297Y-60902230D01*
X112316095Y-60908455D01*
X112245030Y-60930012D01*
X112179537Y-60965019D01*
X112122131Y-61012131D01*
X112075019Y-61069537D01*
X112040012Y-61135030D01*
X112018455Y-61206095D01*
X112011176Y-61280000D01*
X112011176Y-61463889D01*
X111022464Y-62452602D01*
X111003318Y-62468315D01*
X110987605Y-62487461D01*
X110987602Y-62487464D01*
X110940585Y-62544754D01*
X110893971Y-62631963D01*
X110865266Y-62726590D01*
X110855574Y-62824999D01*
X110858002Y-62849652D01*
X110858001Y-66313156D01*
X110756465Y-66414692D01*
X110671432Y-66541953D01*
X110612860Y-66683358D01*
X110583001Y-66833473D01*
X110240298Y-66833473D01*
X110319022Y-66737547D01*
X110456172Y-66480958D01*
X110540629Y-66202543D01*
X110569146Y-65913000D01*
X110540629Y-65623457D01*
X110456172Y-65345042D01*
X110319022Y-65088453D01*
X110134450Y-64863550D01*
X109909547Y-64678978D01*
X109652958Y-64541828D01*
X109374543Y-64457371D01*
X109157556Y-64436000D01*
X108012444Y-64436000D01*
X107795457Y-64457371D01*
X107517042Y-64541828D01*
X107260453Y-64678978D01*
X107035550Y-64863550D01*
X106850978Y-65088453D01*
X106713828Y-65345042D01*
X106629371Y-65623457D01*
X106600854Y-65913000D01*
X96998265Y-65913000D01*
X95265597Y-64180332D01*
X95238133Y-64146867D01*
X95104592Y-64037273D01*
X94952237Y-63955838D01*
X94786922Y-63905690D01*
X94615000Y-63888757D01*
X94571921Y-63893000D01*
X84980224Y-63893000D01*
X84980224Y-63713200D01*
X84972945Y-63639295D01*
X84963937Y-63609599D01*
X84972945Y-63579904D01*
X84980224Y-63505999D01*
X84980224Y-62996569D01*
X85052585Y-62937184D01*
X85131937Y-62840493D01*
X85190902Y-62730179D01*
X85227212Y-62610481D01*
X85239472Y-62485999D01*
X85236400Y-62365349D01*
X85077650Y-62206599D01*
X82480500Y-62206599D01*
X82480500Y-62226599D01*
X82226500Y-62226599D01*
X82226500Y-62206599D01*
X82206500Y-62206599D01*
X82206500Y-61952599D01*
X82226500Y-61952599D01*
X82226500Y-61932599D01*
X82480500Y-61932599D01*
X82480500Y-61952599D01*
X85077650Y-61952599D01*
X85236400Y-61793849D01*
X85239472Y-61673199D01*
X85228481Y-61561601D01*
X104523756Y-61561601D01*
X104548399Y-61564028D01*
X104573042Y-61561601D01*
X104573052Y-61561601D01*
X104646808Y-61554337D01*
X104741435Y-61525632D01*
X104828644Y-61479018D01*
X104905083Y-61416285D01*
X104920801Y-61397133D01*
X107835374Y-58482560D01*
X108012444Y-58500000D01*
X109157556Y-58500000D01*
X109374543Y-58478629D01*
X109652958Y-58394172D01*
X109909547Y-58257022D01*
X110134450Y-58072450D01*
X110319022Y-57847547D01*
X110456172Y-57590958D01*
X110540629Y-57312543D01*
X110569146Y-57023000D01*
X110557032Y-56900000D01*
X111541176Y-56900000D01*
X111541176Y-57400000D01*
X111553018Y-57520239D01*
X111588091Y-57635857D01*
X111645045Y-57742411D01*
X111721693Y-57835807D01*
X111815089Y-57912455D01*
X111921643Y-57969409D01*
X112037261Y-58004482D01*
X112157500Y-58016324D01*
X112632500Y-58016324D01*
X112752739Y-58004482D01*
X112868357Y-57969409D01*
X112974911Y-57912455D01*
X113068307Y-57835807D01*
X113144955Y-57742411D01*
X113193280Y-57652000D01*
X113501720Y-57652000D01*
X113550045Y-57742411D01*
X113626693Y-57835807D01*
X113720089Y-57912455D01*
X113826643Y-57969409D01*
X113942261Y-58004482D01*
X114062500Y-58016324D01*
X114537500Y-58016324D01*
X114657739Y-58004482D01*
X114773357Y-57969409D01*
X114879911Y-57912455D01*
X114973307Y-57835807D01*
X115049955Y-57742411D01*
X115106909Y-57635857D01*
X115141982Y-57520239D01*
X115153824Y-57400000D01*
X115153824Y-56900000D01*
X115141982Y-56779761D01*
X115106909Y-56664143D01*
X115049955Y-56557589D01*
X114973307Y-56464193D01*
X114879911Y-56387545D01*
X114773357Y-56330591D01*
X114657739Y-56295518D01*
X114537500Y-56283676D01*
X114062500Y-56283676D01*
X113942261Y-56295518D01*
X113826643Y-56330591D01*
X113720089Y-56387545D01*
X113626693Y-56464193D01*
X113550045Y-56557589D01*
X113501720Y-56648000D01*
X113193280Y-56648000D01*
X113144955Y-56557589D01*
X113068307Y-56464193D01*
X112974911Y-56387545D01*
X112868357Y-56330591D01*
X112752739Y-56295518D01*
X112632500Y-56283676D01*
X112157500Y-56283676D01*
X112037261Y-56295518D01*
X111921643Y-56330591D01*
X111815089Y-56387545D01*
X111721693Y-56464193D01*
X111645045Y-56557589D01*
X111588091Y-56664143D01*
X111553018Y-56779761D01*
X111541176Y-56900000D01*
X110557032Y-56900000D01*
X110540629Y-56733457D01*
X110456172Y-56455042D01*
X110319022Y-56198453D01*
X110134450Y-55973550D01*
X109909547Y-55788978D01*
X109652958Y-55651828D01*
X109374543Y-55567371D01*
X109157556Y-55546000D01*
X108012444Y-55546000D01*
X107795457Y-55567371D01*
X107517042Y-55651828D01*
X107260453Y-55788978D01*
X107035550Y-55973550D01*
X106850978Y-56198453D01*
X106824850Y-56247335D01*
X106788157Y-56164683D01*
X106591633Y-55885973D01*
X106344511Y-55650958D01*
X106056288Y-55468670D01*
X105738041Y-55346114D01*
X105402000Y-55288000D01*
X104902000Y-55288000D01*
X104902000Y-56896000D01*
X104922000Y-56896000D01*
X104922000Y-57150000D01*
X104902000Y-57150000D01*
X104902000Y-58758000D01*
X105402000Y-58758000D01*
X105738041Y-58699886D01*
X106056288Y-58577330D01*
X106344511Y-58395042D01*
X106591633Y-58160027D01*
X106788157Y-57881317D01*
X106824850Y-57798665D01*
X106850978Y-57847547D01*
X106940921Y-57957144D01*
X104340465Y-60557601D01*
X84966364Y-60557601D01*
X84963937Y-60549601D01*
X84972945Y-60519906D01*
X84980224Y-60446001D01*
X84980224Y-59633201D01*
X84972945Y-59559296D01*
X84972249Y-59557000D01*
X95288155Y-59557000D01*
X95389691Y-59658536D01*
X95516952Y-59743569D01*
X95658357Y-59802141D01*
X95808472Y-59832000D01*
X95961528Y-59832000D01*
X96111643Y-59802141D01*
X96253048Y-59743569D01*
X96380309Y-59658536D01*
X96488536Y-59550309D01*
X96573569Y-59423048D01*
X96632141Y-59281643D01*
X96662000Y-59131528D01*
X96662000Y-58978472D01*
X96632141Y-58828357D01*
X96573569Y-58686952D01*
X96488536Y-58559691D01*
X96380309Y-58451464D01*
X96253048Y-58366431D01*
X96111643Y-58307859D01*
X95961528Y-58278000D01*
X95808472Y-58278000D01*
X95658357Y-58307859D01*
X95516952Y-58366431D01*
X95389691Y-58451464D01*
X95288155Y-58553000D01*
X85220381Y-58553000D01*
X85227212Y-58530482D01*
X85239472Y-58406000D01*
X85236400Y-58285350D01*
X85077650Y-58126600D01*
X82480500Y-58126600D01*
X82480500Y-58146600D01*
X82226500Y-58146600D01*
X82226500Y-58126600D01*
X82206500Y-58126600D01*
X82206500Y-57872600D01*
X82226500Y-57872600D01*
X82226500Y-57116950D01*
X82480500Y-57116950D01*
X82480500Y-57872600D01*
X85077650Y-57872600D01*
X85236400Y-57713850D01*
X85239472Y-57593200D01*
X85227212Y-57468718D01*
X85212168Y-57419122D01*
X98775825Y-57419122D01*
X98813469Y-57569622D01*
X98951843Y-57881317D01*
X99148367Y-58160027D01*
X99395489Y-58395042D01*
X99683712Y-58577330D01*
X100001959Y-58699886D01*
X100338000Y-58758000D01*
X100838000Y-58758000D01*
X100838000Y-57150000D01*
X101092000Y-57150000D01*
X101092000Y-58758000D01*
X101592000Y-58758000D01*
X101928041Y-58699886D01*
X102246288Y-58577330D01*
X102534511Y-58395042D01*
X102781633Y-58160027D01*
X102870000Y-58034705D01*
X102958367Y-58160027D01*
X103205489Y-58395042D01*
X103493712Y-58577330D01*
X103811959Y-58699886D01*
X104148000Y-58758000D01*
X104648000Y-58758000D01*
X104648000Y-57150000D01*
X101092000Y-57150000D01*
X100838000Y-57150000D01*
X98893875Y-57150000D01*
X98775825Y-57419122D01*
X85212168Y-57419122D01*
X85190902Y-57349020D01*
X85131937Y-57238706D01*
X85052585Y-57142015D01*
X84955894Y-57062663D01*
X84845580Y-57003698D01*
X84725882Y-56967388D01*
X84601400Y-56955128D01*
X82639250Y-56958200D01*
X82480500Y-57116950D01*
X82226500Y-57116950D01*
X82067750Y-56958200D01*
X80170001Y-56955229D01*
X80170001Y-55581658D01*
X80240415Y-54863524D01*
X80443268Y-54191643D01*
X80772757Y-53571965D01*
X81216335Y-53028083D01*
X81757103Y-52580722D01*
X82374469Y-52246914D01*
X83044909Y-52039378D01*
X83761840Y-51964025D01*
X83768823Y-51964001D01*
X89743402Y-51964001D01*
X89743402Y-54141624D01*
X89744631Y-54154163D01*
X89744142Y-54166755D01*
X89748690Y-54195553D01*
X89751534Y-54224562D01*
X89755175Y-54236622D01*
X89757141Y-54249070D01*
X89767197Y-54276441D01*
X89775621Y-54304341D01*
X89781534Y-54315462D01*
X89785881Y-54327293D01*
X89801063Y-54352191D01*
X89814745Y-54377922D01*
X89822707Y-54387685D01*
X89829268Y-54398444D01*
X89848989Y-54419910D01*
X89867415Y-54442503D01*
X89877125Y-54450535D01*
X89885648Y-54459813D01*
X89909164Y-54477041D01*
X89931627Y-54495623D01*
X89942712Y-54501616D01*
X89952875Y-54509062D01*
X89979285Y-54521392D01*
X90004933Y-54535260D01*
X90016972Y-54538987D01*
X90028387Y-54544316D01*
X90056691Y-54551282D01*
X90084542Y-54559903D01*
X90097074Y-54561220D01*
X90109308Y-54564231D01*
X90138425Y-54565566D01*
X90167421Y-54568614D01*
X90179971Y-54567472D01*
X90192556Y-54568049D01*
X90198508Y-54567698D01*
X90244684Y-54564652D01*
X90212284Y-54642872D01*
X90136301Y-55024863D01*
X90136301Y-55414337D01*
X90212284Y-55796328D01*
X90361329Y-56156155D01*
X90577709Y-56479992D01*
X90853109Y-56755392D01*
X91176946Y-56971772D01*
X91536773Y-57120817D01*
X91918764Y-57196800D01*
X92308238Y-57196800D01*
X92690229Y-57120817D01*
X93050056Y-56971772D01*
X93373893Y-56755392D01*
X93502407Y-56626878D01*
X98775825Y-56626878D01*
X98893875Y-56896000D01*
X100838000Y-56896000D01*
X100838000Y-55288000D01*
X101092000Y-55288000D01*
X101092000Y-56896000D01*
X104648000Y-56896000D01*
X104648000Y-55288000D01*
X104148000Y-55288000D01*
X103811959Y-55346114D01*
X103493712Y-55468670D01*
X103205489Y-55650958D01*
X102958367Y-55885973D01*
X102870000Y-56011295D01*
X102781633Y-55885973D01*
X102534511Y-55650958D01*
X102246288Y-55468670D01*
X101928041Y-55346114D01*
X101592000Y-55288000D01*
X101092000Y-55288000D01*
X100838000Y-55288000D01*
X100338000Y-55288000D01*
X100001959Y-55346114D01*
X99683712Y-55468670D01*
X99395489Y-55650958D01*
X99148367Y-55885973D01*
X98951843Y-56164683D01*
X98813469Y-56476378D01*
X98775825Y-56626878D01*
X93502407Y-56626878D01*
X93649293Y-56479992D01*
X93865673Y-56156155D01*
X94014718Y-55796328D01*
X94090701Y-55414337D01*
X94090701Y-55075000D01*
X111541176Y-55075000D01*
X111541176Y-55575000D01*
X111553018Y-55695239D01*
X111588091Y-55810857D01*
X111645045Y-55917411D01*
X111721693Y-56010807D01*
X111815089Y-56087455D01*
X111921643Y-56144409D01*
X112037261Y-56179482D01*
X112157500Y-56191324D01*
X112632500Y-56191324D01*
X112752739Y-56179482D01*
X112868357Y-56144409D01*
X112974911Y-56087455D01*
X113068307Y-56010807D01*
X113144955Y-55917411D01*
X113201909Y-55810857D01*
X113236982Y-55695239D01*
X113248824Y-55575000D01*
X113248824Y-55075000D01*
X113446176Y-55075000D01*
X113446176Y-55575000D01*
X113458018Y-55695239D01*
X113493091Y-55810857D01*
X113550045Y-55917411D01*
X113626693Y-56010807D01*
X113720089Y-56087455D01*
X113826643Y-56144409D01*
X113942261Y-56179482D01*
X114062500Y-56191324D01*
X114537500Y-56191324D01*
X114657739Y-56179482D01*
X114773357Y-56144409D01*
X114879911Y-56087455D01*
X114973307Y-56010807D01*
X115049955Y-55917411D01*
X115098280Y-55827000D01*
X115406720Y-55827000D01*
X115455045Y-55917411D01*
X115531693Y-56010807D01*
X115625089Y-56087455D01*
X115731643Y-56144409D01*
X115847261Y-56179482D01*
X115967500Y-56191324D01*
X116442500Y-56191324D01*
X116562739Y-56179482D01*
X116678357Y-56144409D01*
X116784911Y-56087455D01*
X116878307Y-56010807D01*
X116954955Y-55917411D01*
X117011909Y-55810857D01*
X117046982Y-55695239D01*
X117058824Y-55575000D01*
X117058824Y-55075000D01*
X117256176Y-55075000D01*
X117256176Y-55575000D01*
X117268018Y-55695239D01*
X117303091Y-55810857D01*
X117360045Y-55917411D01*
X117436693Y-56010807D01*
X117530089Y-56087455D01*
X117636643Y-56144409D01*
X117752261Y-56179482D01*
X117872500Y-56191324D01*
X118347500Y-56191324D01*
X118467739Y-56179482D01*
X118583357Y-56144409D01*
X118689911Y-56087455D01*
X118783307Y-56010807D01*
X118859955Y-55917411D01*
X118908280Y-55827000D01*
X119216720Y-55827000D01*
X119265045Y-55917411D01*
X119341693Y-56010807D01*
X119435089Y-56087455D01*
X119541643Y-56144409D01*
X119657261Y-56179482D01*
X119777500Y-56191324D01*
X120252500Y-56191324D01*
X120372739Y-56179482D01*
X120488357Y-56144409D01*
X120594911Y-56087455D01*
X120688307Y-56010807D01*
X120764955Y-55917411D01*
X120821909Y-55810857D01*
X120856982Y-55695239D01*
X120868824Y-55575000D01*
X120868824Y-55075000D01*
X120856982Y-54954761D01*
X120821909Y-54839143D01*
X120764955Y-54732589D01*
X120688307Y-54639193D01*
X120594911Y-54562545D01*
X120488357Y-54505591D01*
X120372739Y-54470518D01*
X120252500Y-54458676D01*
X119777500Y-54458676D01*
X119657261Y-54470518D01*
X119541643Y-54505591D01*
X119435089Y-54562545D01*
X119341693Y-54639193D01*
X119265045Y-54732589D01*
X119216720Y-54823000D01*
X118908280Y-54823000D01*
X118859955Y-54732589D01*
X118783307Y-54639193D01*
X118689911Y-54562545D01*
X118583357Y-54505591D01*
X118467739Y-54470518D01*
X118347500Y-54458676D01*
X117872500Y-54458676D01*
X117752261Y-54470518D01*
X117636643Y-54505591D01*
X117530089Y-54562545D01*
X117436693Y-54639193D01*
X117360045Y-54732589D01*
X117303091Y-54839143D01*
X117268018Y-54954761D01*
X117256176Y-55075000D01*
X117058824Y-55075000D01*
X117046982Y-54954761D01*
X117011909Y-54839143D01*
X116954955Y-54732589D01*
X116878307Y-54639193D01*
X116784911Y-54562545D01*
X116678357Y-54505591D01*
X116562739Y-54470518D01*
X116442500Y-54458676D01*
X115967500Y-54458676D01*
X115847261Y-54470518D01*
X115731643Y-54505591D01*
X115625089Y-54562545D01*
X115531693Y-54639193D01*
X115455045Y-54732589D01*
X115406720Y-54823000D01*
X115098280Y-54823000D01*
X115049955Y-54732589D01*
X114973307Y-54639193D01*
X114879911Y-54562545D01*
X114773357Y-54505591D01*
X114657739Y-54470518D01*
X114537500Y-54458676D01*
X114062500Y-54458676D01*
X113942261Y-54470518D01*
X113826643Y-54505591D01*
X113720089Y-54562545D01*
X113626693Y-54639193D01*
X113550045Y-54732589D01*
X113493091Y-54839143D01*
X113458018Y-54954761D01*
X113446176Y-55075000D01*
X113248824Y-55075000D01*
X113236982Y-54954761D01*
X113201909Y-54839143D01*
X113179544Y-54797301D01*
X113252536Y-54724309D01*
X113337569Y-54597048D01*
X113396141Y-54455643D01*
X113426000Y-54305528D01*
X113426000Y-54152472D01*
X113396141Y-54002357D01*
X113337569Y-53860952D01*
X113252536Y-53733691D01*
X113144309Y-53625464D01*
X113017048Y-53540431D01*
X112875643Y-53481859D01*
X112725528Y-53452000D01*
X112572472Y-53452000D01*
X112422357Y-53481859D01*
X112280952Y-53540431D01*
X112153691Y-53625464D01*
X112045464Y-53733691D01*
X111960431Y-53860952D01*
X111901859Y-54002357D01*
X111872000Y-54152472D01*
X111872000Y-54305528D01*
X111896113Y-54426753D01*
X111890573Y-54483000D01*
X111893001Y-54507652D01*
X111893001Y-54520900D01*
X111815089Y-54562545D01*
X111721693Y-54639193D01*
X111645045Y-54732589D01*
X111588091Y-54839143D01*
X111553018Y-54954761D01*
X111541176Y-55075000D01*
X94090701Y-55075000D01*
X94090701Y-55024863D01*
X94014718Y-54642872D01*
X93982318Y-54564652D01*
X94028496Y-54567698D01*
X94041087Y-54567297D01*
X94053621Y-54568614D01*
X94082655Y-54565972D01*
X94111790Y-54565043D01*
X94124065Y-54562203D01*
X94136614Y-54561061D01*
X94164587Y-54552828D01*
X94192981Y-54546259D01*
X94204466Y-54541091D01*
X94216559Y-54537532D01*
X94242401Y-54524022D01*
X94268978Y-54512063D01*
X94279246Y-54504759D01*
X94290411Y-54498922D01*
X94313123Y-54480661D01*
X94336886Y-54463758D01*
X94345542Y-54454596D01*
X94355358Y-54446704D01*
X94374093Y-54424376D01*
X94394117Y-54403182D01*
X94400828Y-54392515D01*
X94408925Y-54382865D01*
X94422965Y-54357326D01*
X94438493Y-54332644D01*
X94443004Y-54320876D01*
X94449073Y-54309837D01*
X94457884Y-54282061D01*
X94468323Y-54254830D01*
X94470463Y-54242406D01*
X94474271Y-54230402D01*
X94477519Y-54201447D01*
X94482470Y-54172704D01*
X94482156Y-54160101D01*
X94483560Y-54147586D01*
X94483602Y-54141624D01*
X94483602Y-51964000D01*
X118598332Y-51963999D01*
X119316480Y-52034414D01*
G37*
%TD.AperFunction*%
D21*
X112511176Y-62882000D02*
X112390000Y-62882000D01*
X112390000Y-62628000D01*
X112511176Y-62628000D01*
X112511176Y-62882000D01*
%TA.AperFunction,Conductor*%
D22*
G36*
X112511176Y-62882000D02*
G01*
X112390000Y-62882000D01*
X112390000Y-62628000D01*
X112511176Y-62628000D01*
X112511176Y-62882000D01*
G37*
%TD.AperFunction*%
%TD*%
M02*
