%TF.GenerationSoftware,KiCad,Pcbnew,(5.1.10)-1*%
%TF.CreationDate,2022-01-27T10:19:25-05:00*%
%TF.ProjectId,CommaPowerProtect,436f6d6d-6150-46f7-9765-7250726f7465,rev?*%
%TF.SameCoordinates,Original*%
%TF.FileFunction,Copper,L2,Bot*%
%TF.FilePolarity,Positive*%
%FSLAX46Y46*%
G04 Gerber Fmt 4.6, Leading zero omitted, Abs format (unit mm)*
G04 Created by KiCad (PCBNEW (5.1.10)-1) date 2022-01-27 10:19:25*
%MOMM*%
%LPD*%
G01*
G04 APERTURE LIST*
%TA.AperFunction,ComponentPad*%
%ADD10O,3.200000X2.200000*%
%TD*%
%TA.AperFunction,ViaPad*%
%ADD11C,0.800000*%
%TD*%
%TA.AperFunction,Conductor*%
%ADD12C,0.250000*%
%TD*%
%TA.AperFunction,Conductor*%
%ADD13C,0.254000*%
%TD*%
%TA.AperFunction,Conductor*%
%ADD14C,0.100000*%
%TD*%
G04 APERTURE END LIST*
D10*
%TO.P,J1,6*%
%TO.N,/CAN_H*%
X108585000Y-57023000D03*
%TO.P,J1,4*%
%TO.N,GND*%
X100965000Y-57023000D03*
%TO.P,J1,14*%
%TO.N,/CAN_L*%
X108585000Y-65913000D03*
%TO.P,J1,5*%
%TO.N,GND*%
X104775000Y-57023000D03*
%TO.P,J1,16*%
%TO.N,/VCC_IN*%
X116205000Y-65913000D03*
%TD*%
D11*
%TO.N,/CAN_L*%
X95885000Y-59055000D03*
%TO.N,Net-(Q1-Pad1)*%
X113030000Y-70739000D03*
X111360001Y-66910001D03*
%TO.N,/VCC_IN*%
X112649000Y-54229000D03*
%TD*%
D12*
%TO.N,/CAN_L*%
X102743000Y-65913000D02*
X95885000Y-59055000D01*
X108585000Y-65913000D02*
X102743000Y-65913000D01*
%TO.N,Net-(Q1-Pad1)*%
X111379000Y-66929000D02*
X111360001Y-66910001D01*
X111379000Y-70485000D02*
X111379000Y-66929000D01*
X111633000Y-70739000D02*
X111379000Y-70485000D01*
X113030000Y-70739000D02*
X111633000Y-70739000D01*
%TO.N,/VCC_IN*%
X113030000Y-64135000D02*
X113030000Y-54610000D01*
X114808000Y-65913000D02*
X113030000Y-64135000D01*
X116205000Y-65913000D02*
X114808000Y-65913000D01*
X113030000Y-54610000D02*
X112649000Y-54229000D01*
%TD*%
D13*
%TO.N,GND*%
X119316480Y-52034414D02*
X119988355Y-52237265D01*
X120608035Y-52566755D01*
X121151914Y-53010331D01*
X121599278Y-53551098D01*
X121933087Y-54168466D01*
X122140624Y-54838909D01*
X122215977Y-55555838D01*
X122216002Y-55563108D01*
X122216001Y-67542343D01*
X122145587Y-68260479D01*
X121942736Y-68932353D01*
X121613245Y-69552037D01*
X121169668Y-70095915D01*
X120628903Y-70543276D01*
X120011534Y-70877086D01*
X119341092Y-71084622D01*
X118624163Y-71159975D01*
X118617180Y-71159999D01*
X113683188Y-71159999D01*
X113718569Y-71107048D01*
X113777141Y-70965643D01*
X113807000Y-70815528D01*
X113807000Y-70662472D01*
X113777141Y-70512357D01*
X113718569Y-70370952D01*
X113633536Y-70243691D01*
X113525309Y-70135464D01*
X113398048Y-70050431D01*
X113256643Y-69991859D01*
X113106528Y-69962000D01*
X112953472Y-69962000D01*
X112803357Y-69991859D01*
X112661952Y-70050431D01*
X112534691Y-70135464D01*
X112433155Y-70237000D01*
X111881000Y-70237000D01*
X111881000Y-67487847D01*
X111963537Y-67405310D01*
X112048570Y-67278049D01*
X112107142Y-67136644D01*
X112137001Y-66986529D01*
X112137001Y-66833473D01*
X112107142Y-66683358D01*
X112048570Y-66541953D01*
X111963537Y-66414692D01*
X111855310Y-66306465D01*
X111728049Y-66221432D01*
X111586644Y-66162860D01*
X111436529Y-66133001D01*
X111283473Y-66133001D01*
X111133358Y-66162860D01*
X110991953Y-66221432D01*
X110864692Y-66306465D01*
X110756465Y-66414692D01*
X110671432Y-66541953D01*
X110612860Y-66683358D01*
X110583001Y-66833473D01*
X110583001Y-66986529D01*
X110612860Y-67136644D01*
X110671432Y-67278049D01*
X110756465Y-67405310D01*
X110864692Y-67513537D01*
X110877001Y-67521761D01*
X110877000Y-70460357D01*
X110874573Y-70485000D01*
X110877000Y-70509643D01*
X110877000Y-70509652D01*
X110884264Y-70583408D01*
X110912969Y-70678035D01*
X110959583Y-70765245D01*
X111022316Y-70841684D01*
X111041468Y-70857402D01*
X111260598Y-71076532D01*
X111276316Y-71095684D01*
X111352755Y-71158417D01*
X111355716Y-71159999D01*
X83787668Y-71160001D01*
X83069521Y-71089586D01*
X82397647Y-70886735D01*
X81777963Y-70557244D01*
X81234085Y-70113667D01*
X80786724Y-69572902D01*
X80452914Y-68955533D01*
X80245378Y-68285091D01*
X80186496Y-67724863D01*
X90136301Y-67724863D01*
X90136301Y-68114337D01*
X90212284Y-68496328D01*
X90361329Y-68856155D01*
X90577709Y-69179992D01*
X90853109Y-69455392D01*
X91176946Y-69671772D01*
X91536773Y-69820817D01*
X91918764Y-69896800D01*
X92308238Y-69896800D01*
X92690229Y-69820817D01*
X93050056Y-69671772D01*
X93373893Y-69455392D01*
X93649293Y-69179992D01*
X93865673Y-68856155D01*
X94014718Y-68496328D01*
X94090701Y-68114337D01*
X94090701Y-67724863D01*
X94014718Y-67342872D01*
X93865673Y-66983045D01*
X93649293Y-66659208D01*
X93373893Y-66383808D01*
X93050056Y-66167428D01*
X92690229Y-66018383D01*
X92308238Y-65942400D01*
X91918764Y-65942400D01*
X91536773Y-66018383D01*
X91176946Y-66167428D01*
X90853109Y-66383808D01*
X90577709Y-66659208D01*
X90361329Y-66983045D01*
X90212284Y-67342872D01*
X90136301Y-67724863D01*
X80186496Y-67724863D01*
X80170025Y-67568162D01*
X80170001Y-67561180D01*
X80170001Y-58978472D01*
X95108000Y-58978472D01*
X95108000Y-59131528D01*
X95137859Y-59281643D01*
X95196431Y-59423048D01*
X95281464Y-59550309D01*
X95389691Y-59658536D01*
X95516952Y-59743569D01*
X95658357Y-59802141D01*
X95808472Y-59832000D01*
X95952066Y-59832000D01*
X102370608Y-66250544D01*
X102386316Y-66269684D01*
X102405456Y-66285392D01*
X102405464Y-66285400D01*
X102462754Y-66332417D01*
X102549963Y-66379031D01*
X102644590Y-66407736D01*
X102653432Y-66408607D01*
X102718347Y-66415000D01*
X102718354Y-66415000D01*
X102743000Y-66417427D01*
X102767645Y-66415000D01*
X106693820Y-66415000D01*
X106713828Y-66480958D01*
X106850978Y-66737547D01*
X107035550Y-66962450D01*
X107260453Y-67147022D01*
X107517042Y-67284172D01*
X107795457Y-67368629D01*
X108012444Y-67390000D01*
X109157556Y-67390000D01*
X109374543Y-67368629D01*
X109652958Y-67284172D01*
X109909547Y-67147022D01*
X110134450Y-66962450D01*
X110319022Y-66737547D01*
X110456172Y-66480958D01*
X110540629Y-66202543D01*
X110569146Y-65913000D01*
X110540629Y-65623457D01*
X110456172Y-65345042D01*
X110319022Y-65088453D01*
X110134450Y-64863550D01*
X109909547Y-64678978D01*
X109652958Y-64541828D01*
X109374543Y-64457371D01*
X109157556Y-64436000D01*
X108012444Y-64436000D01*
X107795457Y-64457371D01*
X107517042Y-64541828D01*
X107260453Y-64678978D01*
X107035550Y-64863550D01*
X106850978Y-65088453D01*
X106713828Y-65345042D01*
X106693820Y-65411000D01*
X102950936Y-65411000D01*
X96662000Y-59122066D01*
X96662000Y-58978472D01*
X96632141Y-58828357D01*
X96573569Y-58686952D01*
X96488536Y-58559691D01*
X96380309Y-58451464D01*
X96253048Y-58366431D01*
X96111643Y-58307859D01*
X95961528Y-58278000D01*
X95808472Y-58278000D01*
X95658357Y-58307859D01*
X95516952Y-58366431D01*
X95389691Y-58451464D01*
X95281464Y-58559691D01*
X95196431Y-58686952D01*
X95137859Y-58828357D01*
X95108000Y-58978472D01*
X80170001Y-58978472D01*
X80170001Y-57419122D01*
X98775825Y-57419122D01*
X98813469Y-57569622D01*
X98951843Y-57881317D01*
X99148367Y-58160027D01*
X99395489Y-58395042D01*
X99683712Y-58577330D01*
X100001959Y-58699886D01*
X100338000Y-58758000D01*
X100838000Y-58758000D01*
X100838000Y-57150000D01*
X101092000Y-57150000D01*
X101092000Y-58758000D01*
X101592000Y-58758000D01*
X101928041Y-58699886D01*
X102246288Y-58577330D01*
X102534511Y-58395042D01*
X102781633Y-58160027D01*
X102870000Y-58034705D01*
X102958367Y-58160027D01*
X103205489Y-58395042D01*
X103493712Y-58577330D01*
X103811959Y-58699886D01*
X104148000Y-58758000D01*
X104648000Y-58758000D01*
X104648000Y-57150000D01*
X101092000Y-57150000D01*
X100838000Y-57150000D01*
X98893875Y-57150000D01*
X98775825Y-57419122D01*
X80170001Y-57419122D01*
X80170001Y-55581658D01*
X80224595Y-55024863D01*
X90136301Y-55024863D01*
X90136301Y-55414337D01*
X90212284Y-55796328D01*
X90361329Y-56156155D01*
X90577709Y-56479992D01*
X90853109Y-56755392D01*
X91176946Y-56971772D01*
X91536773Y-57120817D01*
X91918764Y-57196800D01*
X92308238Y-57196800D01*
X92690229Y-57120817D01*
X93050056Y-56971772D01*
X93373893Y-56755392D01*
X93502407Y-56626878D01*
X98775825Y-56626878D01*
X98893875Y-56896000D01*
X100838000Y-56896000D01*
X100838000Y-55288000D01*
X101092000Y-55288000D01*
X101092000Y-56896000D01*
X104648000Y-56896000D01*
X104648000Y-55288000D01*
X104902000Y-55288000D01*
X104902000Y-56896000D01*
X104922000Y-56896000D01*
X104922000Y-57150000D01*
X104902000Y-57150000D01*
X104902000Y-58758000D01*
X105402000Y-58758000D01*
X105738041Y-58699886D01*
X106056288Y-58577330D01*
X106344511Y-58395042D01*
X106591633Y-58160027D01*
X106788157Y-57881317D01*
X106824850Y-57798665D01*
X106850978Y-57847547D01*
X107035550Y-58072450D01*
X107260453Y-58257022D01*
X107517042Y-58394172D01*
X107795457Y-58478629D01*
X108012444Y-58500000D01*
X109157556Y-58500000D01*
X109374543Y-58478629D01*
X109652958Y-58394172D01*
X109909547Y-58257022D01*
X110134450Y-58072450D01*
X110319022Y-57847547D01*
X110456172Y-57590958D01*
X110540629Y-57312543D01*
X110569146Y-57023000D01*
X110540629Y-56733457D01*
X110456172Y-56455042D01*
X110319022Y-56198453D01*
X110134450Y-55973550D01*
X109909547Y-55788978D01*
X109652958Y-55651828D01*
X109374543Y-55567371D01*
X109157556Y-55546000D01*
X108012444Y-55546000D01*
X107795457Y-55567371D01*
X107517042Y-55651828D01*
X107260453Y-55788978D01*
X107035550Y-55973550D01*
X106850978Y-56198453D01*
X106824850Y-56247335D01*
X106788157Y-56164683D01*
X106591633Y-55885973D01*
X106344511Y-55650958D01*
X106056288Y-55468670D01*
X105738041Y-55346114D01*
X105402000Y-55288000D01*
X104902000Y-55288000D01*
X104648000Y-55288000D01*
X104148000Y-55288000D01*
X103811959Y-55346114D01*
X103493712Y-55468670D01*
X103205489Y-55650958D01*
X102958367Y-55885973D01*
X102870000Y-56011295D01*
X102781633Y-55885973D01*
X102534511Y-55650958D01*
X102246288Y-55468670D01*
X101928041Y-55346114D01*
X101592000Y-55288000D01*
X101092000Y-55288000D01*
X100838000Y-55288000D01*
X100338000Y-55288000D01*
X100001959Y-55346114D01*
X99683712Y-55468670D01*
X99395489Y-55650958D01*
X99148367Y-55885973D01*
X98951843Y-56164683D01*
X98813469Y-56476378D01*
X98775825Y-56626878D01*
X93502407Y-56626878D01*
X93649293Y-56479992D01*
X93865673Y-56156155D01*
X94014718Y-55796328D01*
X94090701Y-55414337D01*
X94090701Y-55024863D01*
X94014718Y-54642872D01*
X93865673Y-54283045D01*
X93778428Y-54152472D01*
X111872000Y-54152472D01*
X111872000Y-54305528D01*
X111901859Y-54455643D01*
X111960431Y-54597048D01*
X112045464Y-54724309D01*
X112153691Y-54832536D01*
X112280952Y-54917569D01*
X112422357Y-54976141D01*
X112528001Y-54997154D01*
X112528000Y-64110357D01*
X112525573Y-64135000D01*
X112528000Y-64159643D01*
X112528000Y-64159652D01*
X112535264Y-64233408D01*
X112563969Y-64328035D01*
X112610583Y-64415245D01*
X112673316Y-64491684D01*
X112692467Y-64507401D01*
X114234269Y-66049204D01*
X114249371Y-66202543D01*
X114333828Y-66480958D01*
X114470978Y-66737547D01*
X114655550Y-66962450D01*
X114880453Y-67147022D01*
X115137042Y-67284172D01*
X115415457Y-67368629D01*
X115632444Y-67390000D01*
X116777556Y-67390000D01*
X116994543Y-67368629D01*
X117272958Y-67284172D01*
X117529547Y-67147022D01*
X117754450Y-66962450D01*
X117939022Y-66737547D01*
X118076172Y-66480958D01*
X118160629Y-66202543D01*
X118189146Y-65913000D01*
X118160629Y-65623457D01*
X118076172Y-65345042D01*
X117939022Y-65088453D01*
X117754450Y-64863550D01*
X117529547Y-64678978D01*
X117272958Y-64541828D01*
X116994543Y-64457371D01*
X116777556Y-64436000D01*
X115632444Y-64436000D01*
X115415457Y-64457371D01*
X115137042Y-64541828D01*
X114880453Y-64678978D01*
X114655550Y-64863550D01*
X114571230Y-64966295D01*
X113532000Y-63927066D01*
X113532000Y-54634642D01*
X113534427Y-54609999D01*
X113532000Y-54585356D01*
X113532000Y-54585347D01*
X113524736Y-54511591D01*
X113496031Y-54416964D01*
X113449417Y-54329755D01*
X113426000Y-54301222D01*
X113426000Y-54152472D01*
X113396141Y-54002357D01*
X113337569Y-53860952D01*
X113252536Y-53733691D01*
X113144309Y-53625464D01*
X113017048Y-53540431D01*
X112875643Y-53481859D01*
X112725528Y-53452000D01*
X112572472Y-53452000D01*
X112422357Y-53481859D01*
X112280952Y-53540431D01*
X112153691Y-53625464D01*
X112045464Y-53733691D01*
X111960431Y-53860952D01*
X111901859Y-54002357D01*
X111872000Y-54152472D01*
X93778428Y-54152472D01*
X93649293Y-53959208D01*
X93373893Y-53683808D01*
X93050056Y-53467428D01*
X92690229Y-53318383D01*
X92308238Y-53242400D01*
X91918764Y-53242400D01*
X91536773Y-53318383D01*
X91176946Y-53467428D01*
X90853109Y-53683808D01*
X90577709Y-53959208D01*
X90361329Y-54283045D01*
X90212284Y-54642872D01*
X90136301Y-55024863D01*
X80224595Y-55024863D01*
X80240415Y-54863524D01*
X80443268Y-54191643D01*
X80772757Y-53571965D01*
X81216335Y-53028083D01*
X81757103Y-52580722D01*
X82374469Y-52246914D01*
X83044909Y-52039378D01*
X83761840Y-51964025D01*
X83768823Y-51964001D01*
X118598332Y-51963999D01*
X119316480Y-52034414D01*
%TA.AperFunction,Conductor*%
D14*
G36*
X119316480Y-52034414D02*
G01*
X119988355Y-52237265D01*
X120608035Y-52566755D01*
X121151914Y-53010331D01*
X121599278Y-53551098D01*
X121933087Y-54168466D01*
X122140624Y-54838909D01*
X122215977Y-55555838D01*
X122216002Y-55563108D01*
X122216001Y-67542343D01*
X122145587Y-68260479D01*
X121942736Y-68932353D01*
X121613245Y-69552037D01*
X121169668Y-70095915D01*
X120628903Y-70543276D01*
X120011534Y-70877086D01*
X119341092Y-71084622D01*
X118624163Y-71159975D01*
X118617180Y-71159999D01*
X113683188Y-71159999D01*
X113718569Y-71107048D01*
X113777141Y-70965643D01*
X113807000Y-70815528D01*
X113807000Y-70662472D01*
X113777141Y-70512357D01*
X113718569Y-70370952D01*
X113633536Y-70243691D01*
X113525309Y-70135464D01*
X113398048Y-70050431D01*
X113256643Y-69991859D01*
X113106528Y-69962000D01*
X112953472Y-69962000D01*
X112803357Y-69991859D01*
X112661952Y-70050431D01*
X112534691Y-70135464D01*
X112433155Y-70237000D01*
X111881000Y-70237000D01*
X111881000Y-67487847D01*
X111963537Y-67405310D01*
X112048570Y-67278049D01*
X112107142Y-67136644D01*
X112137001Y-66986529D01*
X112137001Y-66833473D01*
X112107142Y-66683358D01*
X112048570Y-66541953D01*
X111963537Y-66414692D01*
X111855310Y-66306465D01*
X111728049Y-66221432D01*
X111586644Y-66162860D01*
X111436529Y-66133001D01*
X111283473Y-66133001D01*
X111133358Y-66162860D01*
X110991953Y-66221432D01*
X110864692Y-66306465D01*
X110756465Y-66414692D01*
X110671432Y-66541953D01*
X110612860Y-66683358D01*
X110583001Y-66833473D01*
X110583001Y-66986529D01*
X110612860Y-67136644D01*
X110671432Y-67278049D01*
X110756465Y-67405310D01*
X110864692Y-67513537D01*
X110877001Y-67521761D01*
X110877000Y-70460357D01*
X110874573Y-70485000D01*
X110877000Y-70509643D01*
X110877000Y-70509652D01*
X110884264Y-70583408D01*
X110912969Y-70678035D01*
X110959583Y-70765245D01*
X111022316Y-70841684D01*
X111041468Y-70857402D01*
X111260598Y-71076532D01*
X111276316Y-71095684D01*
X111352755Y-71158417D01*
X111355716Y-71159999D01*
X83787668Y-71160001D01*
X83069521Y-71089586D01*
X82397647Y-70886735D01*
X81777963Y-70557244D01*
X81234085Y-70113667D01*
X80786724Y-69572902D01*
X80452914Y-68955533D01*
X80245378Y-68285091D01*
X80186496Y-67724863D01*
X90136301Y-67724863D01*
X90136301Y-68114337D01*
X90212284Y-68496328D01*
X90361329Y-68856155D01*
X90577709Y-69179992D01*
X90853109Y-69455392D01*
X91176946Y-69671772D01*
X91536773Y-69820817D01*
X91918764Y-69896800D01*
X92308238Y-69896800D01*
X92690229Y-69820817D01*
X93050056Y-69671772D01*
X93373893Y-69455392D01*
X93649293Y-69179992D01*
X93865673Y-68856155D01*
X94014718Y-68496328D01*
X94090701Y-68114337D01*
X94090701Y-67724863D01*
X94014718Y-67342872D01*
X93865673Y-66983045D01*
X93649293Y-66659208D01*
X93373893Y-66383808D01*
X93050056Y-66167428D01*
X92690229Y-66018383D01*
X92308238Y-65942400D01*
X91918764Y-65942400D01*
X91536773Y-66018383D01*
X91176946Y-66167428D01*
X90853109Y-66383808D01*
X90577709Y-66659208D01*
X90361329Y-66983045D01*
X90212284Y-67342872D01*
X90136301Y-67724863D01*
X80186496Y-67724863D01*
X80170025Y-67568162D01*
X80170001Y-67561180D01*
X80170001Y-58978472D01*
X95108000Y-58978472D01*
X95108000Y-59131528D01*
X95137859Y-59281643D01*
X95196431Y-59423048D01*
X95281464Y-59550309D01*
X95389691Y-59658536D01*
X95516952Y-59743569D01*
X95658357Y-59802141D01*
X95808472Y-59832000D01*
X95952066Y-59832000D01*
X102370608Y-66250544D01*
X102386316Y-66269684D01*
X102405456Y-66285392D01*
X102405464Y-66285400D01*
X102462754Y-66332417D01*
X102549963Y-66379031D01*
X102644590Y-66407736D01*
X102653432Y-66408607D01*
X102718347Y-66415000D01*
X102718354Y-66415000D01*
X102743000Y-66417427D01*
X102767645Y-66415000D01*
X106693820Y-66415000D01*
X106713828Y-66480958D01*
X106850978Y-66737547D01*
X107035550Y-66962450D01*
X107260453Y-67147022D01*
X107517042Y-67284172D01*
X107795457Y-67368629D01*
X108012444Y-67390000D01*
X109157556Y-67390000D01*
X109374543Y-67368629D01*
X109652958Y-67284172D01*
X109909547Y-67147022D01*
X110134450Y-66962450D01*
X110319022Y-66737547D01*
X110456172Y-66480958D01*
X110540629Y-66202543D01*
X110569146Y-65913000D01*
X110540629Y-65623457D01*
X110456172Y-65345042D01*
X110319022Y-65088453D01*
X110134450Y-64863550D01*
X109909547Y-64678978D01*
X109652958Y-64541828D01*
X109374543Y-64457371D01*
X109157556Y-64436000D01*
X108012444Y-64436000D01*
X107795457Y-64457371D01*
X107517042Y-64541828D01*
X107260453Y-64678978D01*
X107035550Y-64863550D01*
X106850978Y-65088453D01*
X106713828Y-65345042D01*
X106693820Y-65411000D01*
X102950936Y-65411000D01*
X96662000Y-59122066D01*
X96662000Y-58978472D01*
X96632141Y-58828357D01*
X96573569Y-58686952D01*
X96488536Y-58559691D01*
X96380309Y-58451464D01*
X96253048Y-58366431D01*
X96111643Y-58307859D01*
X95961528Y-58278000D01*
X95808472Y-58278000D01*
X95658357Y-58307859D01*
X95516952Y-58366431D01*
X95389691Y-58451464D01*
X95281464Y-58559691D01*
X95196431Y-58686952D01*
X95137859Y-58828357D01*
X95108000Y-58978472D01*
X80170001Y-58978472D01*
X80170001Y-57419122D01*
X98775825Y-57419122D01*
X98813469Y-57569622D01*
X98951843Y-57881317D01*
X99148367Y-58160027D01*
X99395489Y-58395042D01*
X99683712Y-58577330D01*
X100001959Y-58699886D01*
X100338000Y-58758000D01*
X100838000Y-58758000D01*
X100838000Y-57150000D01*
X101092000Y-57150000D01*
X101092000Y-58758000D01*
X101592000Y-58758000D01*
X101928041Y-58699886D01*
X102246288Y-58577330D01*
X102534511Y-58395042D01*
X102781633Y-58160027D01*
X102870000Y-58034705D01*
X102958367Y-58160027D01*
X103205489Y-58395042D01*
X103493712Y-58577330D01*
X103811959Y-58699886D01*
X104148000Y-58758000D01*
X104648000Y-58758000D01*
X104648000Y-57150000D01*
X101092000Y-57150000D01*
X100838000Y-57150000D01*
X98893875Y-57150000D01*
X98775825Y-57419122D01*
X80170001Y-57419122D01*
X80170001Y-55581658D01*
X80224595Y-55024863D01*
X90136301Y-55024863D01*
X90136301Y-55414337D01*
X90212284Y-55796328D01*
X90361329Y-56156155D01*
X90577709Y-56479992D01*
X90853109Y-56755392D01*
X91176946Y-56971772D01*
X91536773Y-57120817D01*
X91918764Y-57196800D01*
X92308238Y-57196800D01*
X92690229Y-57120817D01*
X93050056Y-56971772D01*
X93373893Y-56755392D01*
X93502407Y-56626878D01*
X98775825Y-56626878D01*
X98893875Y-56896000D01*
X100838000Y-56896000D01*
X100838000Y-55288000D01*
X101092000Y-55288000D01*
X101092000Y-56896000D01*
X104648000Y-56896000D01*
X104648000Y-55288000D01*
X104902000Y-55288000D01*
X104902000Y-56896000D01*
X104922000Y-56896000D01*
X104922000Y-57150000D01*
X104902000Y-57150000D01*
X104902000Y-58758000D01*
X105402000Y-58758000D01*
X105738041Y-58699886D01*
X106056288Y-58577330D01*
X106344511Y-58395042D01*
X106591633Y-58160027D01*
X106788157Y-57881317D01*
X106824850Y-57798665D01*
X106850978Y-57847547D01*
X107035550Y-58072450D01*
X107260453Y-58257022D01*
X107517042Y-58394172D01*
X107795457Y-58478629D01*
X108012444Y-58500000D01*
X109157556Y-58500000D01*
X109374543Y-58478629D01*
X109652958Y-58394172D01*
X109909547Y-58257022D01*
X110134450Y-58072450D01*
X110319022Y-57847547D01*
X110456172Y-57590958D01*
X110540629Y-57312543D01*
X110569146Y-57023000D01*
X110540629Y-56733457D01*
X110456172Y-56455042D01*
X110319022Y-56198453D01*
X110134450Y-55973550D01*
X109909547Y-55788978D01*
X109652958Y-55651828D01*
X109374543Y-55567371D01*
X109157556Y-55546000D01*
X108012444Y-55546000D01*
X107795457Y-55567371D01*
X107517042Y-55651828D01*
X107260453Y-55788978D01*
X107035550Y-55973550D01*
X106850978Y-56198453D01*
X106824850Y-56247335D01*
X106788157Y-56164683D01*
X106591633Y-55885973D01*
X106344511Y-55650958D01*
X106056288Y-55468670D01*
X105738041Y-55346114D01*
X105402000Y-55288000D01*
X104902000Y-55288000D01*
X104648000Y-55288000D01*
X104148000Y-55288000D01*
X103811959Y-55346114D01*
X103493712Y-55468670D01*
X103205489Y-55650958D01*
X102958367Y-55885973D01*
X102870000Y-56011295D01*
X102781633Y-55885973D01*
X102534511Y-55650958D01*
X102246288Y-55468670D01*
X101928041Y-55346114D01*
X101592000Y-55288000D01*
X101092000Y-55288000D01*
X100838000Y-55288000D01*
X100338000Y-55288000D01*
X100001959Y-55346114D01*
X99683712Y-55468670D01*
X99395489Y-55650958D01*
X99148367Y-55885973D01*
X98951843Y-56164683D01*
X98813469Y-56476378D01*
X98775825Y-56626878D01*
X93502407Y-56626878D01*
X93649293Y-56479992D01*
X93865673Y-56156155D01*
X94014718Y-55796328D01*
X94090701Y-55414337D01*
X94090701Y-55024863D01*
X94014718Y-54642872D01*
X93865673Y-54283045D01*
X93778428Y-54152472D01*
X111872000Y-54152472D01*
X111872000Y-54305528D01*
X111901859Y-54455643D01*
X111960431Y-54597048D01*
X112045464Y-54724309D01*
X112153691Y-54832536D01*
X112280952Y-54917569D01*
X112422357Y-54976141D01*
X112528001Y-54997154D01*
X112528000Y-64110357D01*
X112525573Y-64135000D01*
X112528000Y-64159643D01*
X112528000Y-64159652D01*
X112535264Y-64233408D01*
X112563969Y-64328035D01*
X112610583Y-64415245D01*
X112673316Y-64491684D01*
X112692467Y-64507401D01*
X114234269Y-66049204D01*
X114249371Y-66202543D01*
X114333828Y-66480958D01*
X114470978Y-66737547D01*
X114655550Y-66962450D01*
X114880453Y-67147022D01*
X115137042Y-67284172D01*
X115415457Y-67368629D01*
X115632444Y-67390000D01*
X116777556Y-67390000D01*
X116994543Y-67368629D01*
X117272958Y-67284172D01*
X117529547Y-67147022D01*
X117754450Y-66962450D01*
X117939022Y-66737547D01*
X118076172Y-66480958D01*
X118160629Y-66202543D01*
X118189146Y-65913000D01*
X118160629Y-65623457D01*
X118076172Y-65345042D01*
X117939022Y-65088453D01*
X117754450Y-64863550D01*
X117529547Y-64678978D01*
X117272958Y-64541828D01*
X116994543Y-64457371D01*
X116777556Y-64436000D01*
X115632444Y-64436000D01*
X115415457Y-64457371D01*
X115137042Y-64541828D01*
X114880453Y-64678978D01*
X114655550Y-64863550D01*
X114571230Y-64966295D01*
X113532000Y-63927066D01*
X113532000Y-54634642D01*
X113534427Y-54609999D01*
X113532000Y-54585356D01*
X113532000Y-54585347D01*
X113524736Y-54511591D01*
X113496031Y-54416964D01*
X113449417Y-54329755D01*
X113426000Y-54301222D01*
X113426000Y-54152472D01*
X113396141Y-54002357D01*
X113337569Y-53860952D01*
X113252536Y-53733691D01*
X113144309Y-53625464D01*
X113017048Y-53540431D01*
X112875643Y-53481859D01*
X112725528Y-53452000D01*
X112572472Y-53452000D01*
X112422357Y-53481859D01*
X112280952Y-53540431D01*
X112153691Y-53625464D01*
X112045464Y-53733691D01*
X111960431Y-53860952D01*
X111901859Y-54002357D01*
X111872000Y-54152472D01*
X93778428Y-54152472D01*
X93649293Y-53959208D01*
X93373893Y-53683808D01*
X93050056Y-53467428D01*
X92690229Y-53318383D01*
X92308238Y-53242400D01*
X91918764Y-53242400D01*
X91536773Y-53318383D01*
X91176946Y-53467428D01*
X90853109Y-53683808D01*
X90577709Y-53959208D01*
X90361329Y-54283045D01*
X90212284Y-54642872D01*
X90136301Y-55024863D01*
X80224595Y-55024863D01*
X80240415Y-54863524D01*
X80443268Y-54191643D01*
X80772757Y-53571965D01*
X81216335Y-53028083D01*
X81757103Y-52580722D01*
X82374469Y-52246914D01*
X83044909Y-52039378D01*
X83761840Y-51964025D01*
X83768823Y-51964001D01*
X118598332Y-51963999D01*
X119316480Y-52034414D01*
G37*
%TD.AperFunction*%
%TD*%
M02*
